<svg version="1" xmlns="http://www.w3.org/2000/svg" width="2296" height="2296" viewBox="0 0 1722.000000 1722.000000"><path d="M1049 22.2c-1.4.5-5.6 1.2-9.5 1.4-3.8.3-8.1.6-9.5.8-1.4.2-3.1.4-3.8.5-.9.1-1.1 1.9-.9 6.8.5 8.5-.3 10.8-6.9 20.8-2.9 4.5-5.8 9.2-6.4 10.5-1.2 2.7-11.4 9.2-19.9 12.8-8.3 3.4-29 10-33.8 10.7-5.1.7-35.2 8.9-51.3 13.8-6.3 2-18.6 5.2-27.3 7.2-26.8 6.2-51.5 14.9-74.1 26.2-7.1 3.5-13.6 6.3-14.4 6.1-1.2-.2-1-.7.9-2 5.3-3.4 19.8-11.4 33.9-18.5 8-4.1 13.6-7.2 12.5-6.9-8.9 2.1-13.7 4-17.5 6.7-2.4 1.7-10.9 6.5-18.9 10.7-16.1 8.3-32 18.2-38.4 24-14.2 12.8-40.4 40.3-45.5 47.8-2.8 4.2-5 6.4-6.8 6.8-1.5.4-4.2 2.4-6.1 4.3-3.4 3.8-5.3 4-3.3.3.6-1.2.8-2.9.4-3.8-1.4-3.2-1.3-4.6.7-8.6l2-4.1-2.3 2.9c-1.3 1.6-6.2 9.5-11 17.5s-9.2 15.3-9.8 16.1c-6.6 9.8-11.2 16-11.6 16-.3 0-.2-.9.1-2.1 1.3-4 .7-8.8-1.5-12.4-1.2-1.9-2.5-3.5-3-3.5-.9 0-4.1 5.3-10.4 17.1-2.3 4.4-5.6 8.5-9.8 12.2-3.4 3.1-6.4 5.5-6.5 5.3-.7-.7 25.2-53.7 28.5-58.4 1.1-1.5 2.2-4.6 2.6-7 .8-5.3 6.4-16.5 10.5-21 9.9-11 16.7-17.9 20.4-20.5 2.3-1.7 4.4-3.3 4.7-3.7.3-.4 4.7-3.7 9.8-7.4 5-3.7 9.2-7 9.2-7.2 0-1-8.3 4.2-10.9 6.7-1.4 1.5-5.7 4.6-9.6 7.1-29.1 18.6-35.8 23.5-41.5 30.3-4.1 4.8-7.9 8.5-8.7 8.5-2.1 0-6.5 5.4-9.1 11.1-1.6 3.5-4 7.7-5.4 9.4-2.3 2.9-6.5 9.5-12.1 19.6-1.5 2.6-6.6 10.2-11.5 17-8.7 12.2-10.1 15.4-12.7 27.9-.2.8-.8 3.5-1.5 6s-1.4 5.6-1.6 7c-.3 1.4-.7 3.2-.9 4-.2.8-.7 4.4-1 8-.4 3.6-.8 7.6-1.1 9-.2 1.4-.6 7.4-1 13.5-.4 7.8-1.1 11.5-2.2 12.8-1.8 2.1-1.3 2.7 2.4 3 1.6.1 3.1.4 3.4.7.8.9 9.4 4.5 10.1 4.3.4-.1 1.3.4 1.9 1.2.7.8 1.8 1.5 2.4 1.5.7 0 2.2.9 3.4 2 1.2 1.2 2.2 1.7 2.2 1.3 0-.4 1 .2 2.3 1.4 1.2 1.1 5 4.7 8.4 7.9 3.5 3.3 6.3 6.3 6.3 6.7 0 .4.8 1.6 1.8 2.7.9 1 3.1 4.5 4.7 7.7 1.7 3.2 3.3 6 3.8 6.1.4.2.5.8.1 1.3-.3.5.2 1.7 1.1 2.6 1.3 1.3 1.4 1.8.3 2.4-1 .7-1 .9-.1.9.7 0 1.6 1.8 1.9 4 .4 2.2 1.1 4 1.7 4 .8 0 .8.3 0 1.1-.7.7-.6 2.1.2 4.7.8 2.3 1 4.3.4 5.4-.5 1-.5 1.8.1 2 1.1.4 1.6 7.9.6 9.6-.4.7-.2 1.2.5 1.2 1 0 1 .3.1 1.2-.7.7-1.2 3.1-1.2 5.4 0 2.4-.5 4.6-1 4.9-.8.5-.7 1.1.1 2.1.7.8.7 1.4.1 1.4-.5 0-1.3 2-1.6 4.5-.4 2.4-1.1 4.7-1.7 5-.5.4-.7 1.1-.4 1.6.4.5.1.9-.5.9s-.9.4-.6.8c.5.9-3.4 9.3-5.5 11.8-.6.8-.8 1.4-.4 1.4s-.3 1-1.7 2.3c-1.3 1.2-2.2 2.9-2 3.7.3.8.1 1.2-.3.8-.4-.4-2.5 1.6-4.7 4.3-2.8 3.6-4.4 4.9-5.6 4.4-.9-.3-1.3-.3-.9.1.9 1-3.2 5.4-5 5.4-.8 0-1.2.4-.8.9.3.5-.5 1.3-1.7 1.6-1.3.4-3 1.3-3.8 2-.8.8-1.7 1.4-2 1.4-.3 0-3.1 1.2-6.2 2.6-3.1 1.4-6.6 2.8-7.7 3-1.2.2-4.8 1.1-8.2 1.9-6.3 1.7-33.9 2.3-33.9.8 0-.4-1.9-.8-4.2-.9-2.3-.2-4.6-.7-5.1-1.2s-1.6-.7-2.3-.4c-.8.3-1.4 0-1.4-.7 0-.6-.4-.9-.9-.6-.4.3-2.8-.4-5.2-1.6-2.4-1.2-4.7-2.1-5.1-2-.5.1-.8-.3-.8-.9 0-.5-.4-.7-1-.4-.6.3-1 .2-1-.3 0-.6-1.2-1.4-2.7-2-1.6-.5-4.1-2.1-5.6-3.6-1.5-1.4-3.2-2.6-3.7-2.6-.4 0-1-.6-1.3-1.3-.3-.9-.8-.9-1.8.2-.8.8-.9 1.1-.3.8 1.7-1 2.4 1.6 2.4 8.4 0 5.3-.3 6.3-3.4 9.6-1.8 2.1-4.1 5.4-5.1 7.3-2 4-10.6 15-11.7 15-.4 0-1.6-1.6-2.6-3.7-1.9-3.6-1.9-3.6-2.5-1-.4 1.4-4.6 7.4-9.3 13.3-4.8 6-9.2 11.6-9.8 12.6-.6 1-1.4 1.8-1.8 1.8-1.2 0-3.5-6.2-8-21-3.8-12.8-7.7-22.9-8.8-23-.3 0-.5 2-.5 4.5 0 3.5-.5 4.8-2.3 6.1-1.2.8-2.2 2.3-2.2 3.3s-1.1 6.8-2.5 12.8c-1.4 6.1-3.6 18.2-5.1 26.9-1.4 8.7-3 16.6-3.5 17.7-.9 1.7-6.6 5.7-8 5.7-.4 0-2.4-2.7-4.5-6-2.2-3.2-4.3-5.9-4.9-6-1.4 0-8.7-15.6-10-21.5l-1.2-5-1.1 3.5c-.6 1.9-1.3 6.5-1.7 10.1-.3 3.6-.9 7.9-1.4 9.5l-.8 2.9-1.2-2.3c-.6-1.2-2.9-7.3-5.1-13.5-2.1-6.1-5.9-16.6-8.4-23.2-2.5-6.6-4.6-12.4-4.6-12.9 0-.6-1.2-2.7-2.6-4.7-1.5-2.3-3.3-7.3-4.6-13-1.1-5.2-2.6-12.1-3.4-15.4-.7-3.3-1.3-8.1-1.4-10.8 0-2.6-.4-4.7-1-4.7s-1 6.8-1 18.2c-.1 10.1-.3 23.5-.6 29.8-.3 6.3-.6 21.4-.8 33.5-.2 21-.1 22.2 2 27 1.3 2.7 2.6 7.2 2.9 10 .6 4.8 2.9 14.6 4.2 18.2.6 1.7.5 1.7-1.4 0-2-1.8-2.1-1.7-2.5 1.2-.3 1.8.5 5.1 1.8 8.3 3.2 7.3 3.1 10.1-.6 13l-3 2.4 1.6 5.9c.9 3.3 2 7.6 2.5 9.7 1.3 5.5 11.8 22.6 16.9 27.8 2.5 2.5 5.7 6.1 7 8 1.3 1.9 3.1 4.1 4 4.7 1.3 1.1 1.2 1.3-.7 1.9-2.8.8-2 2.4 1.1 2.4 1.2 0 6.2 1.4 11.2 3 7.7 2.7 17.6 5.5 22.4 6.5 3.4.7 31 7.7 37.5 9.4 14.6 4.1 36.5 7 36.5 4.9 0-1.7-25.7-16.8-28.8-16.8-1.4 0-12.6-13-11.8-13.7.6-.6 13.7 2.2 19.8 4.3 6.4 2.2 32.1 3.4 35.3 1.7 2.2-1.3 2.5-1.1-5-3.4-2.2-.6-4.2-1.5-4.5-1.9-.3-.4-5-3.1-10.5-6-5.5-2.8-10.2-5.7-10.4-6.3-.2-.7-1.2-2.4-2.2-3.9-1.1-1.4-1.9-2.8-1.9-3 0-.1 7.1-.3 15.7-.4 18.2 0 34.1-.8 35-1.8.3-.3.2-.6-.3-.7-1.2-.1-4.1-.6-8.9-1.5-3.8-.7-13.5-6.7-13.5-8.4 0-.4 1.7-1.8 3.8-3.1 3.4-2.1 4.8-2.3 18.7-2.4h15l-.1-4c0-2.2-.3-5.1-.5-6.5-.3-2.2.4-2.9 5.1-5.5 4.1-2.2 5.5-3.5 5.2-4.8-.5-2.4.4-5.7 2.2-8.1 1.2-1.5 2.9-1.8 10.3-1.8 4.8 0 13.2.8 18.5 1.6 8.1 1.4 15.3 1.5 16.5.2.2-.1-.3-1.6-1.1-3.2s-1.7-4.7-2-6.8c-.4-2.2-.8-4.1-.9-4.1-.1-.1-1-.7-2.1-1.2-1.6-.9-1.1-1.4 3.8-4.3 6.8-3.8 15.3-7.3 18.1-7.3 1.1.1 5.6 1.3 10 2.8 4.4 1.4 10.3 3.4 13 4.2 2.8.9 5.5 2 6.1 2.5 1.2.9 2.4-1.1 2.4-4.1 0-.9-1.9-4.8-4.3-8.6-9-14.8-11-18.7-9.5-19.6 1.5-.9 17.7-4.9 20.1-4.9 2 0 2.4-1.4 2.2-9.3-.1-4.1.2-7.1 1-7.7 1.4-1.2 31.4-11 33.7-11 1 0 3.7-.7 6-1.4 3.9-1.4 11.4-2.7 16.3-3 3.9-.2 2.9 1.9-2 4.4-5.4 2.8-17.5 10.8-17.5 11.6 0 .3 1 2.3 2.1 4.6 6.1 11.9 7.4 23.5 4.5 38.8-.9 4.7-1.9 11.4-2.2 15-1.1 12.1-7.2 39.1-11.9 52-.7 1.9-1.8 6.2-2.5 9.5-1.8 8.4-8.3 24.5-13.8 34.3-4.8 8.7-22.1 28.4-29.1 33.2-2 1.4-3.7 2.8-3.9 3.2-.2.5-.8.8-1.4.8-.5 0-2.9 1.3-5.3 3-5.8 4-30 16.5-35 18-2.2.7-5.3 2.2-6.9 3.3-1.8 1.2-11.9 4.4-24 7.5-11.6 2.9-21.5 5.5-22.1 5.6-.5.1-2.8.8-5 1.4-2.2.6-5.3 1.3-7 1.6-1.6.3-4.1.8-5.5 1-1.4.3-5.2.8-8.4 1.1-3.3.3-9.1 1.3-13 2.1-9.3 1.9-20.3 2.8-36.1 2.9-18.3 0-28.8-1.5-41.6-6-6.4-2.2-25.3-8-29.9-9.1-.8-.2-6.8-1.7-13.3-3.4-6.4-1.6-13.1-3.2-14.7-3.5-1.7-.3-6.2-1.2-10.2-2-3.9-.9-7.3-1.4-7.5-1.1-.3.3 15.3 4.2 20.8 5.3.9.1 10.3 3.1 21 6.7 10.7 3.5 22.1 7.2 25.4 8.1 3.3.9 9.2 2.5 13 3.6 14.3 3.9 26.9 5.4 47 5.3 14.3 0 34.1-1 36.6-1.8 5.6-1.9 32.9-3.5 32.9-1.8 0 1.1-20.8 8.6-28.2 10.2-2.6.5-7.6 1.2-11 1.6-3.5.3-11 1.4-16.8 2.6-9.6 1.8-18.5 2.4-23.5 1.4-1.1-.2-4-.7-6.5-1.1-2.5-.4-5.4-.9-6.5-1.1-1.1-.3-5.8-1.1-10.5-1.9-4.7-.9-9.2-1.7-10-2-.8-.2-3.5-.7-6-1-2.5-.4-13.2-2.2-23.8-4.1-19-3.3-28.3-4.3-25.2-2.5.8.5 4.4 1.1 8 1.4 3.6.3 9 1.1 12 1.7 3 .6 7.1 1.3 9 1.6 1.9.3 6 .9 9 1.4 3 .5 7.1 1.2 9 1.5 1.9.3 9.4 1.7 16.5 3.1 7.2 1.5 13.9 2.8 15 2.9 1.1.2 4.3.6 7 1 11 1.6 42.9.6 58.9-1.9 1.7-.3 5.4-.8 8.1-1.1 14-1.8 28.6-6.6 62.5-20.6 9.6-3.9 20.4-8.3 24-9.6 8.3-3.1 26.7-12.3 32.5-16.3 2.4-1.6 4.7-3 5.1-3 .4 0 3.3-1.9 6.3-4.3 3.1-2.4 8.5-6.3 12-8.7 6.4-4.3 36.3-33.5 50-48.9 4.1-4.5 9.5-11.3 11.9-14.9 2.5-3.7 6.8-9 9.6-11.7 2.9-2.8 7.1-7.5 9.4-10.6 4.9-6.6 16.9-28.2 19.6-35.4 1-2.8 2.9-7 4.2-9.5 1.2-2.5 3-7.1 3.9-10.3.8-3.1 1.8-5.7 2.1-5.7.3 0 .4 1.9.3 4.2-.2 4.4 4 22.5 6.8 28.9 1.4 3.6 1.4 3.8-2.6 12-2.3 4.6-4.1 8.5-4.1 8.6 0 .8 9.8-.5 11.7-1.5 1.7-1 2.1-.6 3.6 3.6 1 2.6 1.9 7.9 2.1 11.7l.3 7-4.6 4.5c-6.5 6.2-12.8 11.3-15.7 12.6-2.4 1-2.4 1 1.7 3.1 5 2.5 9.8 2.3 16.3-.7 6.6-2.9 7.3-2.7 7.9 2.7.4 3.7.1 5.6-1.4 8.1-1 1.8-1.9 4.1-1.9 5.2 0 1-3.4 4.8-7.7 8.6-4.2 3.8-9.2 8.5-11.1 10.4-1.9 1.9-5.3 5.4-7.5 7.7l-4.2 4.2 7-.3c4-.1 10.9-1.5 16-3 5-1.5 11.6-3.5 14.8-4.5 4.1-1.3 6-1.5 6.3-.7.8 2.4 1.1 12.2.4 14.2-.8 2-15.3 12-23.7 16.3-2.3 1.1-10.6 4.5-18.5 7.5-15.4 5.9-21.6 8.4-20.8 8.7 3.3.9 32.3 1.2 41 .5 4-.4 16.8-1.1 34.1-2.1 8.4-.4 41.1-10.8 48.5-15.4 3.3-2 3.6-4.2 1.9-12-.8-3.5-.4-3.8 11-7.5 11.5-3.7 28.4-6.7 40.5-7.2 5.8-.2 10.6-.8 10.8-1.4.4-1.1 9.3 2.1 15.6 5.6 8.1 4.5 15.6 14.4 17.1 22.7.4 2.1 1.1 3.9 1.5 4.2.4.2 2.9-.6 5.6-1.9 2.7-1.3 5.9-2.6 7.2-3 1.2-.4 2.2-1.1 2.2-1.5 0-1.3-10.2-10.6-15-13.6-4.8-3-24.7-13.1-31.5-16-2.2-.9-7.4-2.7-11.6-4.1-7-2.2-8.9-3.6-8.9-6.5 0-1.3 6.4-1.1 7.7.2.7.7 1.9.9 2.8.5 1.8-.7 2.3-.1-8.4-9.9-2.3-2.1-5.6-4.4-7.4-5.2-1.7-.8-6.3-3.7-10.1-6.4-3.8-2.8-7.4-5.1-8-5.1-3 0-11.5-5-12.1-7.2-.4-1.2-1.5-3.2-2.5-4.3-2.9-3.3-3.3-6.3-3.2-21.5.2-15.1.9-18.7 6-30 1.1-2.5 3.5-8.3 5.3-13 2.9-7.6 12.1-26.9 23.7-49.7 2.3-4.5 4.2-9.1 4.2-10.2 0-1.2-1.3-4.7-2.9-7.9-1.6-3.2-3.1-7.1-3.4-8.8-.5-3 .7-4.9 10.9-16.8 1.3-1.5 2.4-3.1 2.4-3.5 0-.4-1.6-2.2-3.5-4.1-1.9-1.9-3.5-3.8-3.5-4.3 0-1 7.1 5.5 15.8 14.5 3.1 3.2 6.2 5.8 6.9 5.8.7 0 1.3.6 1.3 1.4 0 .7 4.8 6.3 10.8 12.4 8 8.2 12.9 12.3 19.4 16.1 12.1 7.2 14 7.8 17.5 5.2 3-2.2 11.6-5.5 34-13.1 16-5.4 15.4-5.1 25.3-14 4-3.6 7.7-7 8.4-7.5 2.6-2.3 11.2-9.1 13.5-10.8 2.6-1.8 2.4-1.8-8.8-1.2-6.2.3-11.6.7-12 .9-.3.2-4 .7-8.1 1.1-4.1.4-7.7.8-8 1-.3.1-3.2.6-6.5 1-3.2.3-6.2.8-6.5 1-.3.2-2.3.6-4.4.9-2.2.4-6.5 1.4-9.5 2.3-6 1.7-15.1 2.5-15.1 1.3 0-.4 2.4-2.3 5.3-4.2 5.5-3.7 11.3-5.4 28.7-8.3 14.6-2.4 31.5-9.5 42-17.4 19.7-15 23.7-18.2 27.4-21.5 3.8-3.6 3.9-3.6 11-3 3.9.3 9.3 1 11.9 1.5 8.7 1.7 8.8 2-4.8-9-4.4-3.5-8.4-6.9-9-7.5-.5-.7-4.4-4-8.5-7.4-5.8-4.9-12.5-8.8-30-17.6-37.1-18.5-40.4-19.8-46.9-19.1-3 .3-10.5 2.1-16.5 3.9-6.1 1.9-14.8 4.1-19.4 5.1-4.6.9-9.9 2.3-11.9 3.1-3.6 1.6-4.5 1.5-17.8-.6-9.7-1.5-10.5-1.6-23.9-4-6.5-1.1-13.5-2.1-15.5-2.1-3.6-.1-3.6-.1-.6-.8 1.7-.4 7.1-.1 12 .6 5 .7 14 1.2 20 1.2 10.2 0 16.8.5 22.2 1.6 1.2.3 2.4.1 2.8-.4.5-1-2.2-11.8-4.4-17.4-1.7-4.2-1.5-4.6 3.4-6.7 2.5-1.1 8-3.6 12.2-5.6l7.5-3.7 8.2 2.3c10.7 3 10.9 3 33.8 3.3 15.1.2 19.5 0 18.7-.9-.5-.7-6.5-3.5-13.2-6.4-6.7-2.8-13.1-5.5-14.2-6.1-1.1-.5-3.1-1.1-4.4-1.4-1.4-.3-7.1-3.1-12.7-6.4-5.7-3.3-11.2-6.2-12.4-6.6-5.4-1.7-.9-2.5 14.3-2.6 23.4 0 23.4 0 13.5-3.9-3.5-1.3-6.7-2.7-7.3-3.1-.5-.3-5.5-3-11-5.9-5.5-2.9-10.5-5.7-11.1-6.1-.6-.5-2.8-1.2-5-1.7-2.1-.4-4-1.3-4-2-.1-.7-.2-2.7-.3-4.6l-.1-3.4-6.2.3c-3.5.2-7.9.6-9.8.9-1.9.3-5.3.8-7.5 1.2-2.2.3-9.1 2.1-15.4 3.9l-11.4 3.3 2.9-2.8c3.2-3.2 17.5-9.5 30.4-13.4 16.6-5.1 28-6.4 56-6.1 27.9.2 28.6.2 44.3 4.6 13.7 3.8 18.7 5.6 20.7 7.4.8.7 7.1 4.2 14 7.7 12.9 6.6 25.2 14.6 33 21.7l4.5 4.1-13.3-.2c-7.2-.2-13.2-.1-13.2.2 0 .3 2.8 2.2 6.3 4.3 18.5 10.9 42.1 30.2 54.8 45 5.4 6.2 5.9 7.1 5.9 11.5 0 2.7.7 5.7 1.6 7 1.6 2.3 1.3 5.2-.4 5.2-.5 0-2.9-2-5.3-4.5-3-3.1-7.7-6.2-14.5-9.5-5.6-2.8-10.6-5-11.1-5-.6 0-2.1-.8-3.4-1.8-3.5-2.7-5.9-3.4-5.9-1.8 0 .7 8.4 13.9 18.6 29.2 10.2 15.4 20.8 32.4 23.5 38 5.7 11.6 9.7 25.7 11.6 40.9.7 5.9 1.7 7.5 5 7.5 3.5 0 9.5 2.8 9.1 4.2-.3.7-3.1 2.1-6.4 3.2-3.2 1.2-6 2.1-6.2 2.2-.8.4-1.3 6.7-1.7 23.4-.6 18.7-1.1 28.4-2 37.5-.4 3.8-.3 4.6.5 3.3 1.8-3 4.6-3.9 7.6-2.6 2.6 1.2 2.6 1.3 2.1 8.8-.9 12.7-2.9 20.8-7.8 32.4-1.6 3.7-2.9 7.1-2.9 7.5 0 .3 2-2.4 4.4-6.1 4.9-7.7 14.1-31 16.1-40.8 1.6-7.8 2.8-19.1 2.6-24.2-.1-3 .1-3.6 1.3-3.2.8.3 2 2 2.5 3.7 1.4 4.2.7 36.5-.9 41.2-.8 2.5-.9 4-.1 4.9.8.9-.1 4.3-3.3 12.7-13.4 35-28.2 61.2-44.5 78.9-5.1 5.5-5.2 6.9-.3 3.5 5.6-3.8 8.3-4.4 30-6 4.3-.3 5.4.9 3 3.3-.9.9-.6 1.1 1.1.7 3.2-.6 7.1 1.5 7.1 3.8 0 2.5-19.6 22.6-22.8 23.4-2.8.7-4.2-.9-3.5-4.1.3-1.1-1.2.4-3.2 3.4-3.3 4.8-10.9 14.6-12.5 16-2.7 2.5-7.8 9.8-7.2 10.4.4.4.2.6-.5.4-1.1-.3-9.3 8-9.3 9.5 0 1.3-4.4 2.5-6.1 1.6-1.1-.6-1.5-1.9-1.2-5.1l.3-4.3-3.9 6c-2.1 3.3-5.4 7.6-7.2 9.6-1.9 2-4.1 4.9-4.9 6.4-3.3 6.1-18.8 22.7-25.2 26.9-1.8 1.2-2.8 2.7-2.8 4.2 0 1.3-.1 2.4-.2 2.4-.2 0-4.1 1.6-8.8 3.4-7.8 3.2-11.2 5.6-7.7 5.6.9 0 2.5 1.3 3.6 2.9 2 2.7 2 3.3.9 7.7-1.1 3.8-2.2 5.4-6.3 8.4-2.7 2.1-8 5.1-11.7 6.9-3.7 1.7-8.5 4.7-10.7 6.6-2.1 1.9-4.1 3.5-4.5 3.5-.8 0-18.7 8.8-23.6 11.7-1.9 1.1-6.2 3.5-9.5 5.3-13.5 7.5-68.9 43.9-68.1 44.7.2.3 2.3-.7 4.5-2.1 6.4-4.1 17.5-9.3 30.6-14.5 17.9-7.2 35.7-14.7 42.7-18.2 3.5-1.7 10.1-4.6 14.8-6.6 4.7-1.9 11.7-5.1 15.5-7.1 3.9-1.9 10.6-4.8 15-6.4 25.6-9.4 38.2-13.8 57.5-20 11.8-3.8 26-8.5 31.5-10.5 11.3-3.9 14.6-5 29.7-9.2 6.2-1.7 11-2.6 11.3-2 .7 1-.8 1.6-11.8 5.3-4 1.3-13.5 4.6-21.2 7.4-7.7 2.8-18.9 6.6-25 8.5-18.2 5.8-38.7 13.6-43.5 16.6-2.5 1.6-20.4 10.9-39.9 20.7-19.5 9.7-39.9 20.3-45.5 23.4-30.1 16.8-51.6 27.7-58.1 29.5-3.3 1-8.9 3.7-12.5 6-8 5.3-17 10.5-35.5 20.5-7.3 4-19.3 11.5-20.5 12.9-.3.4-3.1 2.4-6.3 4.6-7 4.7-7.3 5.1-4.8 6.4 2.2 1.2 6.9-.1 11.1-2.9 1.4-1 4.3-2.3 6.5-2.9 6.2-1.9 24.5-11.4 24.5-12.8 0-2 16.3-9.6 22.8-10.6 5.9-.9 3.5 1.9-6.3 7.3-3.3 1.9-8.4 5.8-11.4 8.8-3 3-10.2 8.6-16 12.5-12.5 8.4-19.7 13.7-18.5 13.7.5 0 5-2.4 9.9-5.2 20.4-11.7 21.9-12.3 31.3-14.4 1.3-.2 4-1.1 6.1-2 2.1-.8 6.1-1.7 8.7-1.8 2.7-.2 7.8-.8 11.4-1.4 7.4-1.2 15.8-2.1 27.5-2.7 8.2-.5 16.5-1.1 29.2-2.1 4-.3 9.4-1.5 12-2.5l4.8-1.9-4.2.3c-5 .3-5.3-.4-1.7-3.2 2.8-2.2 2.9-1.6-2.6-7.9l-2-2.2 2.4-2.1c1.4-1.2 2.2-2.8 1.9-3.9-.4-1.5 1.3-2.3 10.9-5.3 10.7-3.4 12.3-3.6 29.3-4.1 9.9-.4 19.6-.8 21.5-1.1 6.8-.9 10.2-1.5 10.9-2 .8-.4 4.4-1.2 10.1-2.2l3.5-.5-2 2.1c-3.5 3.6-20.6 13.9-33.5 20.2-22.3 10.8-33.1 16.2-33.5 16.9-.5.8 5.5-.3 10.5-2 1.9-.6 5.6-1.3 8.3-1.5 3.6-.3 5.6-1.1 8.3-3.4 1.9-1.7 4.4-3.1 5.5-3.1 1.1 0 5.7-1.8 10.2-4 7.6-3.6 16.6-6 28.5-7.4 2.3-.3 5.2-1.1 6.5-1.8 1.2-.6 6.3-1.3 11.2-1.3 9.6-.2 13.8-1.1 20.7-4.3 2.4-1.1 10.2-4.7 17.3-8 12.9-6.1 21.4-8.5 34.5-9.7 6.5-.6 25.1-5.5 36.5-9.4 7.7-2.7 34.7-9.4 43-10.6 7.8-1.2 9-1.4 13.5-2 2.5-.3 6.1-.7 8-.9 10.4-1.2 14.1-2 15.1-3.3.7-.7.9-1.6.6-1.9-1-1-37-.3-51.7 1-3.6.3-12.4.8-19.5 1.1-12.9.5-13.1.5-19-2.4-3.3-1.6-6.3-2.7-6.7-2.4-1.4.8-7.8-1.8-7.8-3.2 0-4.2 17.2-12.9 44.5-22.6 4.4-1.5 10.5-3.7 13.5-4.8 8.2-3 9.8-2.8 10.6 1.4.3 1.9.9 3.5 1.3 3.5s1.8 1 3.2 2.2c1.3 1.2 3.4 3 4.5 4 2.1 1.9 2.3 1.9 5.5.2 1.9-.9 5.7-3.4 8.5-5.6 2.8-2.1 5.4-3.8 5.7-3.8.4 0 4.1-2.1 8.4-4.6 13.1-7.9 44.3-23.4 54-27 5.1-1.8 12.3-4.9 16-6.7 3.7-1.9 10.5-4.8 15.1-6.6 4.5-1.8 8.2-3.5 8.2-3.7 0-.5-.4-.4-11.5 2-3.8.8-8.6 1.8-10.5 2.1-1.9.3-4.2.8-5 1-.8.2-3.1.7-5 1-1.9.3-4.2.8-5 1-.8.2-2.6.6-4 .9-4.6.9-8 1.6-10.7 2.2-6.5 1.2-18.1 3.3-22 3.8-2.4.3-6.2.9-8.5 1.2-6.9.9-9.6.8-8.3-.5 2-1.8 10.2-5.8 16-7.9 3.3-1.2 11.4-4.2 18-6.7 13.4-5.2 19.4-7.2 31-10.5 4.3-1.2 8.8-2.8 10-3.5 1.1-.7 5.3-2.3 9.4-3.6 4.1-1.2 9-3.1 10.9-4.1l3.5-1.7-2.7-1.1c-1.5-.5-3.8-1-5.1-1-1.7 0-2.3-.4-1.9-1.4 1-2.6-3.3-2.8-35.1-1-6.6.3-19.8.8-29.3.9-15.5.3-20.4.6-28.3 2-8.1 1.5-22.4 3.6-27.4 4.1-7.1.7-6.7-1.1.5-2.1 7-.9 7.4-1 8.5-1.6.6-.4 3.5-1.4 6.5-2.4s6-2.1 6.5-2.5c.6-.4 7.1-1 14.5-1.4 7.4-.4 16.2-.8 19.5-1.1 3.3-.3 9.2-.7 13-.9 3.9-.3 9.3-.9 12-1.5 2.8-.5 9.3-1.2 14.5-1.6 19.7-1.2 29-2.4 30.5-3.8.7-.7 3.3-2.8 5.7-4.7 2.5-1.9 5.8-5.5 7.4-8 2.4-3.7 3.8-4.8 8.3-6.3 3-1 6.6-2.6 8-3.5 1.4-1 7.3-4.2 13.1-7.1 14.4-7.4 25.4-13.7 27.2-15.8 1.7-2 2-5.3.5-5.3-.5 0-.6-.8-.2-1.8.4-.9.9-2.9 1.1-4.3.6-4.4 5-11 12.4-18.6 4-4 7.6-7.3 8-7.3.5 0 1.5-.6 2.2-1.3 3.1-3 20.3-13.1 24.8-14.6 2.7-.9 4.9-2.1 4.9-2.6.1-.6-2.7-1-6.2-1.1-3.4 0-11.6-.4-18.1-.9-9.6-.7-12.2-1.2-13.5-2.7-2-2.3-4.7-2.8-20.1-3.4-6.9-.2-18.8-.8-26.4-1.2l-13.9-.7 5.1-3.2c7.1-4.4 9.6-5 28.7-6.8 9.1-.9 13.9-1.6 14.8-2.2.5-.3 3-.7 5.6-1 9.6-.9 5.5-1.8-7.7-1.7-15 0-18.1-.9-18.2-5.5 0-4.3 4.7-7.3 19-11.9 17.3-5.5 23.9-7.4 25.7-7 1.6.3 1.5.6-.7 2.9-3.5 3.5-6 7.5-6 9.7 0 3.5 9.9 7.6 21 8.7 8.1.8 9.9 1.1 16 2.3 3 .7 6.4 1 7.5.8 1.1-.3 4.3-.5 7-.6l5-.2-6-1.3c-3.3-.8-7.4-1.4-9-1.4-2.1-.1-3.3-.8-4-2.4-.6-1.2-3.1-3.6-5.8-5.2-2.6-1.7-5-4-5.3-5.1-.6-2.4 1.4-7 4.2-9.6 1.6-1.3 13.6-6.8 28.3-12.9 1.3-.5 2.1-1.2 1.8-1.6-1.1-1 14.2-10.3 16.9-10.3.6 0 2.4-.6 4-1.3 1.6-.8 4-1.9 5.4-2.5 2.1-.9 1.4-1.1-5-1.3-4.1-.1-8.2-.2-9-.1-.8.1-5.8.1-11 .1-11.3-.1-12.5-.1-34.7.6-9.5.3-17.3.2-17.3-.2.1-1.3 4.6-4.3 13.8-9 9.9-5 16.8-6.8 27.1-7.2 2.4-.1 2.4-.1.5-1.6-1.8-1.3-1.7-1.4 1.9-1.5 4.3 0 6.2-2.6 3.2-4.3-4.6-2.5-9.4-8.7-8.9-11.5.1-.6.2-1.7.3-2.3.2-1.4 8.2-4.8 13.1-5.5 3.1-.5 5-1.5 7.5-4.3 3.9-4.2 11-8.4 17.4-10.1 2.3-.6 4.1-1.3 4-1.4-1.2-1.1-52.1-2.4-60.9-1.6-5.4.5-15.3 4.3-19.5 7.5-2.8 2-3.4 2.2-6.1 1-5.2-2.1-15.3-16.1-15.4-21.3 0-1.6 4.2-1.5 8.8.3 3.4 1.3 3.5 1.3 1.5-.2-1.3-.8-2.3-2.5-2.3-3.6s-.7-2.8-1.5-3.8c-3.8-4.1 2.5-10.3 9.5-9.4 1.7.2 4.1 0 5.3-.4 1.2-.5 3.3-.5 4.5 0 3.1 1.2 14.6 1.9 15.8 1.1.5-.4 2.1-2.6 3.6-4.9 2.4-3.6 3.6-4.4 10.5-6.6 4.3-1.4 9.8-2.9 12.3-3.3 2.5-.4 4.8-.9 5.3-1 .4-.1 2.1-.2 3.9-.3 2.3-.1 2.9-.4 2.1-1.2-.6-.6-5.5-1.3-10.9-1.6-5.5-.3-10.6-.9-11.4-1.3-.9-.5-6.8-.7-13.2-.5-6.5.2-13.4-.1-15.4-.7l-3.7-1 3.1-2c1.8-1.1 3.2-2.3 3.2-2.8 0-1.7 31.4-10 40.5-10.6 6.9-.5 20.1-1.7 32-3 8-.8 8.8-1.9 1.6-2.1-3.3-.1-9.1-1.3-13.2-2.8-4.1-1.5-11-3-15.5-3.4-7.3-.7-8.7-1.2-14.5-5.2-3.5-2.4-9.4-6-13-8l-6.7-3.6-7.3 2.3c-10 3.2-20.8 6.2-24.4 6.8-1.6.3-5.9 1-9.5 1.5-13.1 2.1-23.9 2.1-29.9 0-7.2-2.5-10-5.2-8.3-7.9.6-1.1 1.2-2.6 1.2-3.4 0-2.4 1.6-2.8 11.8-3.2 5.4-.2 11.5-.6 13.7-.8 2.2-.3 4.4-.5 4.9-.5.6-.1.1-.8-1-1.6-1.8-1.4-1.8-1.4.9-1.5 1.5 0 2.9-.1 3.2-.1.2-.1 2.8-.7 5.7-1.4l5.3-1.2.1-5.9c0-3.6-.7-7.6-1.8-10.3-2.3-5.5-2.9-9.8-1.7-13 1.6-4 3.9-5 11.9-5.1l7.5-.1-5.3-2.4c-7.1-3.3-6.4-4.9 2.4-5.5 6.7-.5 6.8-.6 3.4-1.6-4.5-1.4-10.6-1-17.3 1.2-5.3 1.6-5.4 1.6-20.8-2-8.5-2-18.1-3.9-21.3-4.2-3.3-.3-7.6-1.3-9.5-2.1-2-.9-4.7-1.8-6.1-1.9-1.4-.1-4.6-1-7.2-1.8-2.6-.9-6.6-1.9-9-2.1-2.4-.3-6.3-.8-8.8-1.2-2.5-.3-7.1-.6-10.2-.7-5.3-.2-9.4-1.5-5.2-1.7 1-.1 3.3-.3 4.9-.6 6.7-.9 17.3-.5 32.5 1.3 8.5 1 53.6.2 54.8-1 .3-.3-.6-.6-1.9-.6-4.8 0-15.9-2.9-18.6-4.8-6.9-4.9-8.1-9.2-2.6-9.2 1.5-.1 4.2-.7 5.8-1.4 2.7-1.2 2.2-1.3-5.1-.9-9.5.6-11.5-.2-24.1-9.5-14.2-10.5-21.9-20-18.2-22.2 1-.7 1-1.1 0-2.4-1.3-1.6-.1-2.5 9.2-6.8 2.1-1 3.6-2.2 3.3-2.7-.7-1.1-9.6-.8-12 .6-1.2.7-3.1.7-5.5.1-2-.6-10.9-1.1-19.8-1.2l-16.2-.2-4.8-4.4c-6.7-6.1-15.1-14.8-17-17.7-1.2-1.8-1.6-4.8-1.6-10.9V273l4.9-4.6 4.9-4.5 6.5.5c11.1.9 21.3 3.3 31.8 7.5 7 2.8 8.3 2.7 4.2-.4-3.5-2.6-11.5-5.9-16.5-6.9-1.7-.3-6.6-1.5-11-2.6-14.7-3.7-37-8.1-48.5-9.5-2.5-.3-5.6-.8-7-1-7.8-1.2-12.5-1.7-26.8-2.4-12.5-.7-16.6-1.3-20.2-2.9-2.5-1.2-7.6-2.6-11.4-3.2-3.8-.6-7.6-1.5-8.5-2-.9-.4-3.7-1.1-6.1-1.5-5.2-.7-10.3-2.5-9.5-3.3 1.3-1.3 5.3-1.5 31.6-1.7 20.2-.1 28.9.2 32.5 1.1 3.8 1.1 6.4 1.1 11.8.3 6.9-1.1 19.4-.7 27.6 1 5 1 7 .6 2.4-.5-1.6-.4-7.8-2.6-13.9-4.9-6-2.4-17.1-6.6-24.5-9.5-14-5.4-23.5-8.2-40.5-12-12.2-2.7-12.4-2.7-16.9-3.4-10-1.6-16.6-4.2-16.6-6.5 0-.5 1.7-1.5 3.8-2.1 5.8-1.9 6.3-3.1 1.2-2.9-4.4.2-10.7-1.1-16.3-3.3-1.9-.8-2.7-1.7-2.5-3 .6-3.6 35.8-14.8 46.7-14.8 1.9 0 3.2-.2 3-.5-2-2-36.2-2.4-39.9-.5-.8.4-5.1 1.1-9.5 1.4-10.8 1-16.5 1.6-19.5 2.1-2.8.5-8.2 1.2-15 2-3.9.5-9 1.3-19 3.2-5.4 1-23.8 5.3-28.5 6.8-7.9 2.4-21.7 5.5-24.2 5.5-1.3 0-2.3-.5-2.3-1 0-.6.5-1 1.2-1 .6 0 2.7-1.2 4.7-2.7 5.2-4 16.5-9.2 23.7-10.8 9.2-2.1 14.7-3.7 18.9-5.5 2.8-1.2 9.1-3 14-4.1 5-1.1 14.9-3.8 22-6.1 11.8-3.8 12.7-4.2 10-5-2.9-.8-44.6-1.1-60.8-.4-6.3.3-7.7.1-7.3-1 .4-1.1-.8-1.4-5.7-1.4-8.3 0-26.2 2.5-31.3 4.4-5.6 2-14.1 3-14.8 1.7-.4-.5-.1-1.3.5-1.7.8-.4.7-.9-.2-1.5-1.1-.7-.2-2 3.6-5.4 2.8-2.4 6.4-4.9 8-5.5 1.7-.7 9.3-4 17-7.5 14.4-6.5 25.6-9.6 35.5-9.7 2.7 0 5-.4 5-.9 0-1.3-34.7-.8-44.1.7-9.4 1.5-19.8 4.4-33.9 9.6-5.2 1.9-11.1 3.8-13 4.1-1.9.4-4.6 1-6 1.3-6.4 1.4-20.1 3.4-26 3.8-3.6.2-6.9.5-7.3.5-.4.1-.3 1 .3 2 1.4 2.7 1.4 2.7-2.5 5.1-5.1 3.2-8.8 4-21 4.5-6 .3-12.6.8-14.5 1-1.9.3-6.6.8-10.5 1.2-8 .7-10.1 2-38 22.3-26.4 19.3-40.6 29-42.3 29-2.3 0 4.2-6.5 15.8-15.8 5.2-4.2 9.7-7.9 10-8.2 2-2.1 25.8-19.5 31.5-23 3.9-2.4 9.9-6.6 13.4-9.3 3.5-2.7 8.6-6 11.5-7.3 2.8-1.4 6.7-3.3 8.6-4.3 1.9-1.1 5.1-2.4 7-2.9 3.4-1 3.4-1 .6-1.1-1.6-.1-7 1.7-12 3.8-5 2.2-15.9 6.3-24.1 9.1-21.4 7.4-25.1 9-37.7 16.6-12.6 7.5-19.6 12.3-24.8 17.1-8.7 7.8-10 8.3-10 3.3 0-5.1 8-13.2 18.8-19.2 3.9-2.1 6.8-4.4 7-5.5.7-4.2 3.2-7 12.5-14s12-9.6 7.8-7.3c-1.1.5-2.7 1-3.7 1-.9 0-7.6 3.9-14.8 8.7-7.2 4.7-18 11.4-24.1 14.8-10.9 6.1-28.6 17.4-37.8 24.2-3.3 2.4-5.2 3.2-5.8 2.6-1-1-3-.1-16.6 8.1-2.3 1.3-5.4 4.4-6.9 6.8-1.5 2.4-4.9 6.8-7.5 9.8-2.6 3-6 7.7-7.6 10.5-3.1 5.2-6 6.8-7.5 4.1-.5-.9-1.5-1.6-2.3-1.6-1.8 0-2.4-2-1.4-4.7.6-1.6.5-2.2-.4-2-3.4.6.7-8 7.2-15.1 1.6-1.8 3.3-4.8 3.6-6.5.8-3.6 3.6-7.6 9.5-13.6 2.2-2.2 3.8-4.1 3.5-4.1-.4 0-4.6 2.7-9.3 6-9.3 6.4-10.6 6.9-11.6 4.4-.4-1 3.5-5.6 12.7-14.8 12.8-12.8 16.4-16 27.5-24.7 4-3.2 5.6-3.9 6.6-3 1 .8 1.7.7 2.6-.4 1.1-1.3 16.5-12 19.5-13.5.9-.5 13.4-8.8 14.4-9.7.2-.1.2-.6-.2-.9-.7-.8-13.9 6.4-26.7 14.5-5.4 3.4-9.8 5.7-10.3 5.2-1.1-1.1-10.9 4-30.7 15.9-27.5 16.6-39.6 25.7-57.5 43.5-10.6 10.5-16.8 19.1-20.4 28.2-.7 1.7-2.9 4.3-4.9 5.6-2.1 1.4-8.1 6.1-13.6 10.5-5.4 4.4-10.8 8.2-12.1 8.4l-2.3.5 1.8-5.1c2.1-6.2 5.8-13.6 11.1-22.2 5.2-8.5 23.7-33.7 28.9-39.4 2.3-2.5 5.7-6.4 7.7-8.7 1.9-2.3 6.6-6.8 10.4-9.9 6.1-5 6.7-5.8 5.3-6.9-3.1-2.2-.8-6 9.6-15.3 9.9-8.9 25.6-19.1 36.5-23.8 2.8-1.2 10.6-4.5 17.5-7.4 23-9.7 39.4-17.2 50-22.7 5.7-3 15.4-7 21.5-9 44.4-14 55.7-18.6 74.1-30.3 11-7 23.2-18.1 24.1-22 .3-1.4 2-5.7 3.8-9.5 5.4-11.7 5.5-12.4.5-10.3zm57.5 135.3c-1.6 1.3-4.3 2.7-6 3.1-3.9.8-10.4 3.7-18.7 8.4-5.5 3.2-6.5 3.5-5.9 1.9 1.3-3.5 8.2-9.8 12.4-11.2 3.6-1.3 17.3-4.3 20.2-4.6.6 0-.3 1.1-2 2.4zm-197.8 50.3c-2.6 2.6-5.9 6.1-7.5 7.9-3.4 4-8.2 5.5-8.2 2.5 0-4.2 17.4-17.7 20-15.5.3.3-1.7 2.5-4.3 5.1zm125.3 6.7c-.7.8-1.8 1.5-2.4 1.5-.6 0-2.8.9-4.9 2-2 1.1-4.2 2-4.8 2-2.9 0-37.4 19.5-42.4 24-1.1 1-3.7 2.4-5.9 3.1-2.1.8-4.8 2.6-6.1 4-1.2 1.5-4.8 4.7-8.1 7.2-3.2 2.5-9.5 8-13.8 12.2-8.5 8-9.7 8.4-17.1 6.4-2.2-.6-6.4-1.1-9.2-1.1-2.9 0-5.3-.2-5.3-.4 0-1 27.1-23.3 30-24.6 1.9-.9 10.3-4.6 18.7-8.2 8.3-3.6 23.6-10.5 34-15.2 18.4-8.5 32.9-14.2 36.7-14.3 1.5-.1 1.6.2.6 1.4zm-145.4 7.1c-.3.8-1 1.4-1.6 1.4-2 0-2.2-2.8-.3-5.6l1.8-2.8.3 2.8c.2 1.5.1 3.4-.2 4.2zm-76.6 7.1c0 .5-.9 2.1-2 3.8-1.1 1.6-2 4.6-2 6.5 0 2-.7 4.6-1.6 5.9-1.5 2.1-1.9 3.5-2.3 8.3-.3 3.9-16.3 16.7-19.4 15.5-3.9-1.5 1-11.7 11.5-23.6 2.1-2.4 3.8-5 3.8-5.7 0-1.5 9.4-11.4 10.9-11.4.6 0 1.1.3 1.1.7zm-86.7 2.5c-.5.7-2 4.2-3.3 7.8-1.3 3.6-4 8.7-6 11.5-5.2 7.2-12.5 20.1-15 26.4-2.8 7.1-5.2 19.9-6.6 35.2-.5 5-.3 5.9 1.7 7.7 2 2 2.1 2.3.6 4.4-2.5 3.8-5.5 6.6-7.7 7.3-1.8.6-2 1.2-1.5 3.7.6 2.7.5 2.9-1.3 2.4-1.5-.5-3.1.8-7.8 6.6-9.3 11.6-8.8 11.5-8.1 1.8.6-9.4 5.2-25.1 9-30.9 1.3-2 3.1-5.9 4.2-8.6 1-2.8 3.3-8 5.1-11.6 1.8-3.7 4.4-9.9 5.8-13.8 1.4-4 5.7-12.7 9.7-19.4 8.7-14.7 20.9-33 21.7-32.3.3.3 0 1.1-.5 1.8zm617 22.2c.9.5 1.7 1.7 1.7 2.7 0 2 .4 2-7.8-1.2-1.3-.5-2-1.4-1.7-1.9.7-1.1 4.7-.9 7.8.4zm15.7 1c2.5.3 7.2.8 10.5 1.2 3.3.3 6.3.8 6.8 1.1 1.2.7-.2 2.3-2.1 2.3-1 0-4.2 1.6-7.1 3.4l-5.4 3.5-3.7-1.9c-3.5-1.8-9-7.2-9-8.9 0-1.4 1.3-2.1 3.4-1.6 1.2.2 4.1.6 6.6.9zm-291.5 16c1.7.3 5.3.8 8 1.1 2.8.3 6.6.7 8.5 1 1.9.2 5.8.7 8.5 1 7.3.9 23 4.3 30.5 6.5 7.4 2.2 10.3 2.8 14.4 2.9 1.6.1 2.6.4 2.2.8-.4.5-9.4.8-19.9.9-22.6.1-48.9 1.2-66.2 2.9-2.7.3-7.7.7-11 1-18.1 1.7-47.6 6.9-67.5 12.1-8.6 2.2-8.9 1.7-2.4-4.4 4.6-4.2 10.3-7.8 22-13.8 8.8-4.5 17.7-8.5 19.9-8.8 2.2-.4 5.6-.9 7.5-1.1 1.9-.3 5.3-1.1 7.5-1.9 2.9-1 7.9-1.3 19.5-1 8.5.2 16.9.6 18.5.8zm96.1 19.8c1.1 1.7-.2 1.8-7.7.7-4.1-.6-8.2-1.2-9.1-1.2-3.8-.2 0-1.6 5.2-1.9 5.7-.3 10.6.7 11.6 2.4zm-248.2 28.7c1.8.7 1.7.9-.7 2.8-2.8 2.2-4.4 2.3-10 .4-4.6-1.6-4.3-2 2-3.1 6.2-1 6.4-1 8.7-.1zM752.5 338c.5-.8 1.1-.8 2.1.1 1.1.9 1.4.9 1.4 0 0-.7.4-.9 1-.6.5.3 3.1.8 5.7 1.1 2.7.3 5.9.7 7.3.9 3.6.5 14.1 3.4 15.4 4.2.6.4 2 .9 3.1 1 1 .2 2.2.7 2.5 1.1.6 1 4.2 2.6 5.3 2.4.4-.1.7.3.7.9 0 .5.4.8.9.5.5-.4 1.1-.3 1.3.1.5 1.3 8.2 6.8 9.1 6.5.4-.1.7.2.7.8 0 .5 2 2.8 4.5 5.1s4.5 4.8 4.5 5.5c0 .8.7 1.4 1.5 1.4s1.5.5 1.5 1.1c0 .6 1.4 3.1 3 5.6 1.7 2.4 3 4.8 3 5.3s.5 1.2 1.2 1.6c.7.4.8.3.4-.4-1-1.6 3.9-8.2 8.2-11.2 2-1.4 7.6-6.7 12.5-11.8 8.1-8.3 11.7-10.9 11.7-8.3 0 .5-2.8 4-6.3 7.8-3.4 3.8-6.8 8.4-7.5 10.3-2.1 5.5-5.4 12.1-8.8 17-4.7 7-5.7 10.2-4.6 14.6.5 2.2 1 5.2 1.1 6.8 0 1.6.6 3.5 1.1 4.2.7.7.7 1.4.1 1.8-1.8 1.2 0 4.5 2.2 4.1 18.3-3.1 38.7-4.5 38.7-2.7 0 .5-1.1 1.7-2.4 2.5-1.3.9-4.4 5.8-6.9 10.9-8.3 16.7-10.4 28.9-10.6 61.5-.1 12.8 1 11.7-12.1 13.3-8.8 1.1-11.1 1.4-19.5 3-2.7.5-6.6 1.2-8.5 1.4-1.9.3-4.4.7-5.5 1-1.1.2-4.7.7-8 1-10.1 1.1-33 5.9-48.5 10.1-6.1 1.6-9.8 1.9-6.1.4 4.4-1.7 50.4-13.8 64.5-16.8 7.6-1.7 16.5-4.1 19.7-5.3 5.1-2 5.8-2.5 5.3-4.5-.3-1.2-.2-2.8.2-3.5.5-.7.9-2.4 1-3.8.1-1.4.5-5.5.9-9.1.4-4.4.3-6.9-.4-7.3-1-.6-.9-2.3.4-11.1.2-1.7.7-5.2 1.1-7.9 1.2-9.8 6.5-21.5 11.8-26.5 1.4-1.4 2.6-2.9 2.6-3.4s-3-.7-7.2-.4c-4 .4-8.6.6-10.1.7-2.4 0-2.7.3-2.2 2.1.4 1.2.3 1.9-.2 1.6-.7-.5-1.3 3.5-1.7 12.8 0 1.6-.4 3.3-.9 3.6-.4.3-.9 1.6-1.2 2.8-.5 2.9-1.4 5.7-3 9.5-.7 1.7-1.3 3.5-1.3 4s-.4 1.2-.9 1.5c-.4.3-1.7 2.3-2.8 4.5-1.1 2.1-2.6 4-3.2 4.3-.7.3-1.1.9-.8 1.3.3.5-2.3 3.7-5.7 7.2-6.7 6.7-12.8 12-12.8 11 0-.3-1 .4-2.3 1.6-1.3 1.2-2.7 1.9-3 1.5-.4-.3-.7-.1-.7.5 0 .7-.3 1.1-.7 1-1.1-.2-8.3 3.4-8.3 4.2 0 .4-1.1.6-2.5.5-1.4-.2-2.5.1-2.5.6s-.3.8-.7.7c-1.2-.2-6.6 1.2-8.5 2.2-1.1.6-1.9.6-2.3-.1-.5-.7-1.1-.7-1.9 0-.7.6-3.4 1-6 .8-2.6-.1-4.9 0-5.1.3-.7 1.1-23.4-1.1-27.5-2.7-.8-.3-2.6-.8-4-1-1.4-.2-2.9-.8-3.4-1.4-.6-.5-1.8-.9-2.8-.9-1 0-1.8-.5-1.8-1 0-.6-.9-1-2-1s-2-.4-2-.9-1-1.1-2.2-1.5c-2.3-.5-5.4-2.6-8.9-5.9-1.1-.9-2.3-1.7-2.9-1.7-.5 0-1-.4-1-.9s-.9-1.3-2-1.6c-1.1-.3-2-1.1-2-1.6 0-.6-.7-1.8-1.6-2.6-4.5-4.6-15.4-21.3-13.8-21.3.4 0 .2-.6-.3-1.3-1.2-1.4-3.2-7.1-3.9-10.7-.3-1.3-1-2.7-1.6-3.1-.7-.4-.7-.9.1-1.3.8-.5.8-1.3 0-2.8-.8-1.4-1.4-1.7-2.2-.9-.7.7-1.5.7-2.6-.2-.8-.7-1.2-.7-.8-.1.6 1.1-11 5-12 4-.6-.6 3.7-9.3 5.3-10.7.8-.6 1.4-1.9 1.4-2.9 0-.9.3-2 .8-2.4.4-.4.7-1.1.7-1.5 0-1.3 5.9-6.6 7-6.3.5.2.7 0 .3-.4-.4-.4-.3-1.2.2-1.9.5-.6 1.1-3.5 1.2-6.3.2-2.9.6-5.2 1.1-5.2.4 0 .7-1.4.7-3 0-1.7.4-3 .9-3s.7-.8.4-1.9c-.2-1 .3-2.5 1.2-3.5.9-.9 1.4-1.6 1.1-1.6-.3 0 0-1.4.5-3 .6-1.7 1.5-3 2.1-3 .5 0 .7-.4.4-.8-.3-.5.6-2.5 2-4.5s2.1-3.7 1.7-3.7c-.4 0-.3-.4.3-.8.5-.4 2.7-2.9 4.7-5.6 2-2.7 3.7-4.6 3.7-4.2 0 .4 1.5-.9 3.2-2.9 1.8-1.9 3.9-3.5 4.6-3.5.7 0 1.1-.4.7-.9-.3-.5.3-1.2 1.4-1.6 1-.3 2.9-1.4 4.1-2.5 1.2-1.1 2.7-1.7 3.3-1.3.7.4.8-.1.3-1.3-.4-1-.4-1.5 0-1.2.3.4 2.1.1 3.9-.7 1.9-.7 3.6-1.1 3.9-.7.3.3.6 0 .6-.6s1.6-1.4 3.5-1.8c1.9-.3 3.5-1 3.5-1.5 0-.4.9-.6 2-.4 1.1.2 2-.1 2-.7s.3-.8.7-.5c.3.4 1.2.2 2-.4 1-.9 1.3-.8 1.3.1 0 1 .3 1 1.4.1.8-.7 3.2-1.1 5.3-1 2.1.2 4.7-.2 5.8-.8 1.3-.8 2.4-.8 3.2-.2.7.7 1.4.6 1.8-.1zm123.5 2.6c0 2.2-3.7 3.5-7.2 2.6-4.5-1.1-4.5-2.8-.1-3.9 4.5-1.1 7.3-.6 7.3 1.3zm610.8 21.8c1.2.4 2.2 1.6 2.2 2.7 0 2.4-.4 2.4-4-.3-4.6-3.3-3.9-4.3 1.8-2.4zm-57.4 7.5c.8 1.2-2 2.2-4.1 1.4-1.5-.6-1.5-.7.3-1.4 2.6-1 3.2-1 3.8 0zM982 452.5c6.6.7 9 1.9 7.4 3.5-.9.9-3.1.6-8.5-1-7.4-2.2-11.4-4.3-6.8-3.6 1.3.3 4.9.7 7.9 1.1zm-32.8 4.3c4 1.6 11.4 4.1 16.3 5.7 9.9 3.1 11.7 4.1 9.6 5.4-.8.6-2.9.4-5-.4-3.8-1.3-29.3-12.5-30-13.1-1.3-1.1 2.8 0 9.1 2.4zm559.7 8.7c-.5.4-3.2.8-16.4 2-5.6.5-5.9.5-3.5-.9 1.7-1.1 5.4-1.5 11.4-1.6 4.9 0 8.7.2 8.5.5zm33.6.5c.4.7-.7 1-3 .8-4.7-.3-5.7-1.8-1.1-1.8 1.9 0 3.8.5 4.1 1zm-35.9 12.4c-3.4 2.8-7.2 11.6-5.4 12.7 2.2 1.4 0 2.1-6.4 2.2-11 .1-17.2-1.9-18.3-6.1-1-4.2 3.3-7.7 11.3-9.2 12.5-2.2 14.7-2.5 18.1-2.1l3.3.3-2.6 2.2zm-731.4 47.3c.6 6.3.1 41.3-.7 48.3-.7 7.1-3.8 19.1-7 27.7-3.4 9.1-14.7 34.5-15.1 34.1-.4-.5 3.9-14.3 6.4-20.3 9.6-23.1 12.3-35.5 11.6-54-1.3-34.2-1.3-32 .9-36.4 1.1-2.3 2.4-4.1 2.8-4.1.4 0 .9 2.1 1.1 4.7zm85.7 5.4c-.2 10.4-1.1 11.9-6.9 11.9-4.1 0-12.3 3.1-15.4 5.8-4.8 4.1 2.6-5.6 11.6-15.1 5.1-5.5 9.5-10.4 9.6-10.8 1-2.5 1.3 0 1.1 8.2zm379 19.8c1.2.8 1.2 1.2.2 2.5-1 1.2-1.7 1.3-3.7.4-1.3-.6-2.4-1.4-2.4-1.8 0-2 3.4-2.6 5.9-1.1zm293.1 14.6c2 1.3-.5 2.6-5.6 2.9-2.7.2-6.7 1.1-8.8 2-3.7 1.5-3.8 1.7-2.2 3.4.9 1 1.6 2.3 1.6 2.9 0 2.2-2.7 2-9.5-.8-3.9-1.5-7.8-2.8-8.7-2.8-4.2-.2-2.7-4.4 2.2-6.3 1.4-.6 6.3-1.2 10.9-1.4 4.7-.3 8.6-.6 8.7-.7.6-.6 10.3.1 11.4.8zM486.5 591.6c-1.1.8-6.7 4.5-12.5 8.3-12 7.9-14 9.9-16.4 16.1-1 2.5-3 6.6-4.6 9.2-1.6 2.5-3.2 6.4-3.6 8.5-1.2 6.6-4.9 8.9-5.1 3 0-1.7-.3-6.8-.6-11.2l-.5-7.9 6.7-5.3c3.6-2.9 8.2-6 10.1-7 1.9-.9 4.1-2.2 4.8-3 .7-.7 3.4-2.7 6-4.5 6.7-4.6 21.5-10.5 15.7-6.2zm370.1 10.7c.4 7.8.2 11.7-.5 12.1-.6.4-1.4 0-1.7-.9-.4-1-1-1.2-1.8-.7-.6.5-2.5 1-4.1 1-1.7 0-6 1.1-9.6 2.5l-6.7 2.4 1.5-3.6c.8-2 2.8-5.4 4.3-7.6 3.2-4.5 16.9-18 17.6-17.2.3.3.7 5.6 1 12zm679.1 6.1c.8.8-.7 2.6-2.3 2.6-.8 0-3.1 1.1-5.2 2.4-2 1.4-7.2 3.4-11.5 4.6-4.2 1.1-12.3 4-17.8 6.4-11.5 5.1-11.4 5.4-1.7-7.2 2.6-3.5 4.8-6.9 4.8-7.7 0-.7.8-1.6 1.8-1.8 2.2-.7 31.2 0 31.9.7zm-678.1 42.2c.1 5.7-1 7.9-4.8 9.5-1.6.6-2.8 1.5-2.8 1.9 0 .8-4.6 2.9-7.1 3.4-.8.1-3 .7-4.9 1.4-3.7 1.2-11 1.2-11 0 0-.4 2.3-1.7 5-2.9 2.8-1.2 5-2.5 5-3 0-.4.8-1 1.8-1.3.9-.3 5.1-3.7 9.2-7.6 4.1-3.8 8-6.8 8.5-6.6.6.1 1 2.5 1.1 5.2zm-.8 37.3l.2 7.9-4.2 2.2c-2.4 1.2-5.9 3.4-7.8 4.8-4.6 3.5-15.8 6.9-24 7.1l-6.5.2 2.5-2.3c1.4-1.3 3.6-2.8 5-3.4 1.4-.6 9.5-6.4 18-12.8 8.5-6.3 15.8-11.6 16.1-11.6.3 0 .6 3.6.7 7.9zm613.2 9c.8.1 0 .8-1.8 1.6-1.9.8-4.7 2.6-6.4 4-2 1.7-4.2 2.5-6.7 2.5-2.4 0-4.9.9-7.2 2.6-5.6 4.2-15.7 9.5-22.3 11.9-3.3 1.1-6 2.6-5.9 3.3.2.6-.2 2.3-.7 3.7-.8 2.2-1.5 2.5-5.4 2.3-8.8-.3-8.3-.9 11.1-13.1 5.2-3.3 8.2-6.1 11.1-10.4 2.2-3.2 4-6.3 4-6.8 0-.6 1.1-1.3 2.4-1.6 2-.5 23.3-.5 27.8 0zm-197.4 107.5c1.7 1.8 1.8 2.6.2 2.6-.7 0-5.7 2.3-11.2 5-14.3 7.3-22 6.8-8.8-.6 3.7-2 8.3-4.8 10.2-6.1 3.9-2.6 7.5-3 9.6-.9zm-68.1 86.5c.3.5.2 1.2-.3 1.5-.5.3-.9-.1-.9-.9 0-1.7.3-1.9 1.2-.6zm-13 21c1.6.2-1.8 2.8-8 6.3-6.8 3.8-9.8 5.2-9.1 4 .3-.5.7-2.1 1-3.6l.5-2.7-3.1 2.6c-4.8 4.1-10.5 6.6-16.1 7.1-2.9.3-10.7 1.6-17.3 3-11.6 2.4-19.2 2.8-19.7 1.1-.2-.8 20.9-9.9 33.7-14.4 5.6-2 9.2-2.5 19.8-2.8 7.1-.2 13.2-.5 13.4-.8.3-.3 1.3-.4 2.2-.2.9.2 2.1.4 2.7.4z"/><path d="M768.7 356.6c-.1.1-2 .4-4.2.7-8.6 1.2-17 5.1-24 11.4-3.8 3.3-8.5 10.8-10.5 16.7-2.3 6.5-3.2 18.4-1.7 23.1 4.7 14.5 11.7 23.3 23.4 29.1 7.3 3.6 8.4 3.8 16.8 3.8 10.2.1 13.3-.4 19-3.1 7.3-3.3 11-6.3 16.7-13.3 6.2-7.7 8.2-13.9 8.2-26 0-9.9-.2-10.9-3.3-17.1-6.1-12.3-16.9-21.3-28.6-23.9-4.8-1.1-11.3-1.9-11.8-1.4zM812.4 86.8c-3.5.3-4.2.7-5.2 3.5-.6 1.8-3.5 5.9-6.3 9-4.3 4.8-7.1 6.7-16.8 11.5-6.4 3.1-15.8 7.1-20.8 8.7-5.1 1.7-9.1 3.4-8.9 4 .7 2.3 10.2.1 24.6-5.5 8.2-3.3 15.7-6 16.5-6 .9 0 3.4-1.7 5.8-3.8 2.3-2.1 5.9-5 8-6.6 7-5.1 12.4-11.6 11.3-13.4-.8-1.3-3.4-1.8-8.2-1.4zM559.6 288.7c-.3 1-.6 2.1-.6 2.5-.1.4-.7 2.3-1.5 4.2-1.7 4-12.5 43.3-12.5 45.3 0 1.4 4.6.8 6.4-.8.5-.5 1.5-.4 2.2.2 1.7 1.4 2.2.3 2.8-7.6.4-3.9.9-9.7 1.1-13 .3-3.3.8-8.5 1-11.5.8-10.2 1.6-17.5 2.1-19.3.3-.9.3-1.7 0-1.7-.2 0-.7.8-1 1.7zM571.6 338.2c.3.5 1 .6 1.5.3 1.3-.9 1.1-1.2-.6-1.2-.8 0-1.2.4-.9.9zM553.4 405.9c-8.1 2.3-14 5.9-19.6 11.9-3.8 4-7.7 9.8-8.3 12.2-.1.3-.4 1.2-.8 2-1.8 4.5-2.5 10-2.3 17.3.4 10.7 4.2 19.4 11.8 27 6.3 6.3 8.4 7.7 16.1 10.6 10.8 4 24.6 3 34.8-2.5 20-10.9 28-36.6 17.7-56.8-5.1-10-16.9-19.5-27.3-22-6.3-1.6-16-1.4-22.1.3zM503 469.4c0 .2.7.7 1.6 1 .8.3 1.2.2.9-.4-.6-1-2.5-1.4-2.5-.6zM1618.9 677c-2.6.9-11.7 3.7-20.2 6.1l-15.6 4.3-2.3 6.5c-1.3 3.7-6 12.1-10.6 19.1-4.5 6.9-8 13-7.8 13.7.4 1 4.2 1.1 5.2.1.1-.2 2.2-1.9 4.5-3.8 2.4-1.9 6.4-5.4 9-7.8 2.6-2.3 8.5-6.8 13.2-10 7.4-4.9 9-6.5 11.7-11.7 5.3-10.2 7.2-12.4 11-13.1 1.9-.4 5.5-1.7 8-3 4.3-2.2 4.4-2.3 1.5-2.3-1.6.1-5.1.9-7.6 1.9zM1581.7 780.1c-2 .5-4.8 1.6-6.1 2.4-2.1 1.4-2.5 1.4-3.3.1-1.2-2.1-21.8-2.6-23.7-.5-.8.8-5 6.8-9.4 13.4-4.4 6.6-10.4 14.2-13.3 16.9-5.1 4.6-17.8 14-20.2 14.9-.7.2-.9.7-.5 1.1.3.4 2.3-.2 4.5-1.3 2.1-1.2 8.8-4.7 15-8 6.3-3.2 13.5-7.9 16.6-10.7 5.4-4.9 19.8-14.4 21.9-14.4.6 0 1.9-.6 2.7-1.3.9-.7 6-3.9 11.4-7.1 11.7-6.9 12-7.3 4.4-5.5zM1057 858.3c-5.3 2.8-10.7 5.7-12 6.3-11.3 5.3-28 13.9-30 15.5l-2.5 2 4-.5c2.2-.3 6.3-.9 9-1.2 3.7-.5 7.7-2.2 15-6.7 8.4-5.1 27.5-19.2 27.5-20.4 0-.9-2.3.1-11 5zM1550.7 862.7c-.1.1-3.8.3-8.3.5-4.4.3-8.5.8-9.2 1.2-.7.4-1.7.4-2.3 0-1.2-.7-4.8-.7-27.6-.4l-12.2.2-8.5 8.9c-4.8 4.9-8.6 9.1-8.6 9.3 0 .2-4.2 4.7-9.4 10-5.1 5.3-9.2 9.6-9 9.6.2 0 2.1-.9 4.1-2 2.1-1.1 4.5-2 5.4-2 .9 0 3.6-1 6-2.3 5-2.7 11-4.9 11.6-4.3.2.2-5.4 4-12.4 8.4-7 4.5-15.3 10.2-18.3 12.7s-5.8 4.5-6.2 4.5c-.5 0-.8.4-.8.9 0 1.3 5.9-.7 28.5-9.3 3.5-1.4 17-8.1 25.2-12.7 9.8-5.4 13.6-8.1 18.6-12.8 11.4-10.8 11-10.5 20-12.4 4.8-1 11.3-2.9 14.5-4.2 3.3-1.3 8.1-2.7 10.8-3.1 7.8-1 6.5-1.5-3-1.2-4.8.2-8.8.4-8.9.5zM1529 870c0 .5-.2 1-.4 1-.3 0-.8-.5-1.1-1-.3-.6-.1-1 .4-1 .6 0 1.1.4 1.1 1zM1148 971c-1.8 1.2-.2 1.2 2.5 0 1.3-.6 1.5-.9.5-.9-.8 0-2.2.4-3 .9zM1476.9 971.7c-1.4.7-4.3 1.5-6.4 1.9-2.1.3-4.9 1-6.2 1.5-1.3.5-2.3.6-2.3.3 0-.2-.9 0-2 .6-1 .6-4.5 1.3-7.7 1.5-3.2.3-7 .8-8.4 1.1-1.4.2-5.2.7-8.5.9-9.6.8-13.3 1.5-20.8 4.2-10.4 3.7-14.2 5.9-17.3 9.9-4.2 5.3-5.5 6.7-9.3 9.8-1.9 1.5-5.6 4.8-8.1 7.1-2.5 2.4-6 5.2-7.8 6.3-1.8 1.1-2.9 2.2-2.4 2.5 1.1.6 4.9-.9 5.8-2.2.3-.6 1.6-1.1 2.7-1.1 1.2 0 4-.9 6.2-1.9 2.3-1.1 7.6-3.5 12-5.5 4.3-2 10-4.9 12.5-6.5 2.6-1.5 9.4-4.3 15.1-6.1 9.6-3.1 21.3-7.9 39-16.3 3.6-1.7 9.6-4 13.4-5.2 5.7-1.9 6.6-2.4 5-3.2-1.3-.7-2.7-.5-4.5.4zM1129.8 977.7c.7.3 1.6.2 1.9-.1.4-.3-.2-.6-1.3-.5-1.1 0-1.4.3-.6.6zM1118.5 980.4c-4.4 1.2-10.1 2.7-12.6 3.4-3.2.8-4.8 1.8-5.2 3.2-.6 2.4-.4 2.4 3.6.3 1.8-.9 3.7-1.8 4.2-1.9 2-.4 18.8-6.4 19.3-6.9.7-.7-.2-.5-9.3 1.9zM1083.7 983.6c-.1.1-5.8.5-12.7.8-13.5.7-15.8 1.3-23.5 6.1-5.9 3.7-10.4 5.3-27.5 9.5-13 3.3-56.8 17.5-58.4 19-.9.9-.1.7 15.9-3.5 5.5-1.5 10.7-2.8 11.5-3 3.3-.8 7.7-2.3 12.5-4.3 11.3-4.6 45.5-14.1 56-15.6 2.2-.3 5.6-1 7.5-1.6 3.3-1 5-1.3 12.5-2.6 4.3-.7 13.9-3.5 14.7-4.3.4-.4-1.3-.7-3.8-.7s-4.6.1-4.7.2zM1073.2 1008.5c-6.2 1.3-11.6 2.6-12 2.8-.4.3-3.6.8-7.2 1.2-14 1.5-30.4 5.3-54 12.5-7.4 2.3-16 4.8-19 5.6-3 .8-6.2 1.8-7 2.1-.8.3-1.7.7-2 .8-.6.1-8.3 1.8-9 1.9-.3.1-1.8.7-3.5 1.3-1.6.6-10.2 4-19 7.4-14.7 5.7-26.6 11.6-28 13.8-.3.5 1.3.7 3.6.5 2.2-.2 5.2.2 6.7 1 1.6.8 3.5 1.1 4.7.6 1.1-.4 4.5-1 7.5-1.4 3-.4 7.1-.9 9-1.2 3.8-.6 10.2-.5 10.8.1.2.2.1 1.8-.3 3.6-1.4 6.4-23.5 25.7-38.7 33.9-18.1 9.7-38.5 16.9-40.2 14.2-.3-.6-6.2 2.4-13.6 6.9-7.1 4.3-17.8 10.3-23.7 13.2-6 3-18.2 9.2-27.3 13.8-9.1 4.7-19.6 9.9-23.5 11.6-3.8 1.7-11.8 5.4-17.8 8.2-5.9 2.8-10.9 5.1-11.1 5.1-.7 0-32.2 17.3-34.6 19-4.8 3.4-36.1 19.1-37.3 18.7-.6-.2-5.4 1.8-10.7 4.3-9.8 4.9-16.1 7.8-26.5 12.4-3.3 1.5-9.6 4.8-14 7.4-9.2 5.4-13 7.5-16.5 9.4-1.4.7-2.7 1.5-3 1.8-.3.3-2.5 1.6-5 2.9-2.5 1.4-8.8 5.1-14 8.2-5.2 3.2-9.7 5.5-10 5.3-1.4-1.5 33.1-28.4 36.5-28.4.4 0 1.9-.8 3.3-1.9 1.5-1 10.4-5.8 19.7-10.6 36.8-19 50.1-26.3 49.2-27.1-.2-.3-4.7 1.6-10 4.1-5.2 2.5-10.5 4.8-11.8 5-2.1.4-6.9 2.8-17.1 8.4-2.5 1.4-9.1 5-14.5 8-25.7 14.2-82 49.6-83.1 52.3-.2.4-1 .8-1.8.8s-1.4.4-1.4 1c0 .5-.5 1-1.1 1-1.7 0-15.5 10.6-19.8 15.2-7.9 8.6-16.9 22.1-18.3 27.5-.3 1-5.9 6.1-12.4 11.1-21.4 16.6-22.3 17.3-32.4 26.8-4.1 3.9-9.7 9.1-12.5 11.5-2.7 2.4-5.2 4.6-5.5 4.9-.3.3-4.5 3.9-9.5 8-11.9 9.9-16.2 14.4-8.9 9.5 2-1.4 4.1-2.5 4.6-2.5.9 0 25-8.8 31.3-11.5 5.3-2.2 15-6.4 20.8-9 5.1-2.2 5.7-2.3 5.7-.7 0 .9-1.7 3.6-3.8 5.8-4.4 4.9-6 6.8-13 15.9-7.6 10-13.3 16.5-24.3 28-5.3 5.5-12.6 13.1-16.2 17-3.6 3.8-9.4 10.1-12.9 13.8l-6.3 6.8-7.5.5c-4.7.3-9.3 1.3-12.3 2.7-4.9 2.2-5.7 3.3-9.8 13.4-.5 1.3-1.3 3.3-1.9 4.5-1.5 3.5-10 25.8-11.7 30.6-1.6 4.8-5.1 11.6-16.7 32.7-8.8 15.9-12 21.2-18.8 30.8-4.9 6.9-5.7 9.2-3.5 10 .9.3.9.7 0 1.8-1.2 1.5-.7 6.3.6 5.7 5.2-2.7 6.9-4.5 6.9-7.3 0-1.9 1.6-5.5 4.4-9.7 2.3-3.7 5.5-8.6 7-11 1.5-2.4 3.3-5.2 4-6.2 4.8-7.4 9.8-15.8 9.8-16.5 0-.4 1.1-2.1 2.5-3.7s2.5-3.5 2.5-4.2c0-.6.4-1.2.8-1.2s1.6-1.5 2.7-3.2c1-1.8 3.9-6 6.4-9.3 2.4-3.3 5.8-7.9 7.5-10.3 1.7-2.3 7-9.2 11.8-15.3 4.8-6.1 8.5-11.6 8.1-12.2-.3-.5-.1-.7.5-.3.5.3 2.5-1.3 4.3-3.6 1.9-2.3 4.3-5.1 5.4-6.3 1.1-1.1 5.2-5.6 9.2-10 16.3-18.3 26.4-27.1 44.3-38.9 8-5.3 18.5-12.6 23.4-16.3 15-11.5 31.6-22.3 34.2-22.3 5.6 0 3.6 2.9-14 20.4-9.7 9.6-17.6 18-17.6 18.7 0 1.6-3.6 5.8-17.8 20.4-7 7.2-15.2 15.9-18.2 19.4-3 3.5-6 6.9-6.5 7.5-1 1.1-11.4 13.6-14.1 16.9-.8.9-1.4 1.9-1.4 2.2 0 .3-.8 1.3-1.7 2.3-2.5 2.6-18.7 23.3-19.3 24.6-.7 1.4-8.3 13-9 13.6-.4.3-2.1 3-3.9 6-1.9 3-4 5.9-4.7 6.3-.8.4-1.4 1.6-1.4 2.6s-.6 2.4-1.4 3c-.8.7-2.3 3.1-3.4 5.4-1.1 2.3-3.2 5.5-4.6 7-1.4 1.5-2.6 3.4-2.6 4.1 0 .7-.9 2.1-2 3.1s-1.7 2.1-1.5 2.6c.3.4.1 1-.4 1.3-.5.3-.7 1.5-.4 2.6.3 1.1.1 2.6-.5 3.3-.6.7-1.3 2.4-1.5 3.8-.3 1.3-1.4 4.5-2.5 6.9-1.2 2.5-3 7.8-4.2 11.8-1.2 4.1-3.2 9.3-4.6 11.7-2.3 4.2-1.9 7 .6 4 .7-.8 1.6-1.3 2-1 .5.3 3.2-.3 6.2-1.4 17.7-6.3 49.9-15.9 53.5-16 2.2 0 5.2-.5 6.6-1 2.3-.9 9.1-2.3 17.9-3.6 4.6-.8 6.4.1 4.4 2.1-.8.8-1.9 1.4-2.5 1.4-2.2 0-22.8 5.2-29.7 7.5-11 3.6-25.7 10.9-31.1 15.5-.7.5-1.5 1-1.9 1-.3 0-1.9 1-3.6 2.1-2.1 1.5-3.3 1.8-4 1.1-.8-.8-.8-1.6.2-2.7.7-.8 1-1.5.6-1.5-.7 0-9.2 4.9-15.6 9.1-2.5 1.6-5.2 3.2-6 3.6-3.1 1.4-20 16.4-20 17.7 0 .1-3 3.3-6.6 7.1-8.7 9.1-9.7 10.7-10.9 18.3l-1.1 6.4-4.4 1.5c-7.1 2.4-7.3 3.6-.5 2.7 3.3-.4 8-.8 10.5-.9 2.5-.2 7.3-.6 10.8-.9 7.2-.7 7.4 0 1.1 4-4.8 3-9.6 7.9-10.5 10.8-.4 1.1-1.7 3.5-3 5.2-1.6 2-2.4 4.4-2.4 7 0 3.3-.5 4.2-3.1 5.6-1.8 1.1-2.7 2.2-2.3 2.9.4.7.3.9-.2.6-.6-.3-1.5-.3-2 .1-1.5 1-8.4 11-8.4 12.2 0 .6 6.2 1 16.8 1h16.8l.2-3.7c.3-3.7 2.9-7.9 8.1-13.1 4.2-4.2 12.2-11.2 12.7-11.2.3 0 4.4-3 9.2-6.7 4.8-3.7 11.1-8.2 14.1-10 5.2-3.1 5.3-3.3 3-4.2-1.3-.5-3.9-2.2-5.7-3.8l-3.4-2.9.6-8.4c.5-6.4 1.1-8.9 2.6-10.5 1.1-1.2 2-3.1 2-4.3 0-2.4 3.2-5.6 14.1-13.9 20.5-15.7 62.3-40 71.9-41.9 3.4-.7 3.9-2 1-2.9-1-.3-3.8-2.7-6-5.3-3.6-4-4.1-5.1-3.6-8.2 1-7.3 2.6-9.5 10.2-13.5 4.7-2.5 23.5-8.9 28.9-9.9 1.6-.3 5.1-1 7.9-1.5 2.8-.6 6.9-1.3 9.1-1.6 2.2-.3 4.1-1 4.3-1.5.2-.5.9-.7 1.6-.4 1.1.4 3-.8 8.1-5.3 1.1-1 1.7-1.4 1.3-.9-1.3 1.7-.9 2.6 1.3 2.6 1.3 0 1.8-.4 1.3-1.3-.4-.6-.3-.9.1-.4.5.4.9 1.6 1 2.7.1 1.4-.2 1.7-1 1-1.6-1.3-4.5-.2-4.5 1.6 0 .8-.9 1.9-2 2.6-1.1.7-2 1.8-2 2.5 0 1.8-5.6 5.6-15.5 10.4-10.5 5.1-17.5 11.4-17.5 15.6 0 1.8 1.4 4.3 4 7.1 5.9 6.5 5.7 6.8-4.8 7.7-14.5 1.2-34.2 11.9-49.4 26.7-5.3 5.1-11.7 11.1-14.2 13.3-6.4 5.5-15.2 19-16.4 25.1-.5 2.7-1.1 5.6-1.3 6.4-.3 1.2 1.3 1.4 11.1 1.2 12.7-.4 16.5-.3 19.5.3 1.1.2 2.7.4 3.5.4.9.1 1.1.4.4 1.1-.6.6-5.4 1.4-10.7 1.9-8.7.9-10.5 1.4-17.4 5.3-4.3 2.3-8 4.3-8.3 4.3-2.5.3-8.7 4.5-11.5 7.8-4.8 5.6-4.8 9.8 0 14.4l3.6 3.5-.7 8.3c-.4 4.6-.4 9.5 0 10.9l.6 2.6h15.5c10.3 0 15.5-.4 15.5-1.1 0-3.1 5.8-12.5 11.3-18.2 6.9-7.1 19.2-17.7 20.6-17.7.5 0 1.6-.6 2.3-1.3.7-.6 2.7-1.8 4.3-2.5 3.1-1.4 6.5-3.1 10-4.9 1.1-.5 3.8-1.8 6-2.9 2.2-1 5.2-2.6 6.7-3.6 4.7-3.2 16.2-7.6 21.1-8 4.2-.5 7.5-1.6 5.1-1.9-2.6-.3-12.3-.6-23.8-.7l-12.9-.2.6-3.4c.6-3.8 1.7-5.3 10-14.1 7.4-8 19.8-16.9 27.7-20 7.6-3 28.5-9 36-10.4 8.3-1.5 14.5-2 29-2.2 7.2 0 15.2-.7 17.8-1.4 2.6-.7 10.9-4.3 18.5-7.9 7.9-3.8 17.8-7.7 23-9.1 5.1-1.3 14.2-3.8 20.2-5.5 6.1-1.6 12.4-3.3 14-3.5 1.7-.3 3.7-.8 4.5-1 .8-.2 3.5-.7 6-1 2.5-.4 6.8-1.1 9.5-1.6 2.8-.5 6.6-1.2 8.5-1.5 5.2-.8 13.9-3.4 14.5-4.3.2-.5-.9-1.1-2.5-1.5-1.9-.3-3-1.2-3.1-2.3-.2-4.2-.6-7.2-1.9-13.8-1.2-6.3-1.8-7.4-6.4-12-6.4-6.4-11.4-8.8-25.7-12.3-8-2-11.5-3.3-11.7-4.4-.4-1.9 3.5-2.8 9.3-2.3 3.8.4 29.6 6.5 45.5 10.7 6.8 1.8 21.1 9 28.2 14.1 1.4 1.1 2.9 3 3.2 4.3.4 1.3 2 3.9 3.7 5.8 1.6 1.9 3 3.7 3 4-.2 2 .2 2.5 2.7 3.2 2.4.6 1.9.9-3.8 2-3.6.8-8.1 1.6-10 1.9-1.9.4-4.3.8-5.2 1.1-.9.3-2.5.7-3.5.9-1 .2-11.5 2.8-23.3 5.9-11.8 3-22.6 5.7-24 6-4.2.7-18.8 4.6-21.7 5.7-1.6.6-3.5 1.2-4.3 1.4-6.3 1.5-15.4 5.4-37.7 16.1-16.5 7.9-26.2 10.9-38.3 11.8-4.1.4-9.9 1.3-12.7 2.1-2.9.9-5.6 1.6-6 1.7-.5 0-4.6 1.4-9.3 3-4.7 1.6-8.9 3.1-9.5 3.2-6.9 1.8-12.8 4.1-16.5 6.6-2.5 1.6-4.8 3-5.2 3-2.4 0-12.6 7.4-14.1 10.2-1.1 1.8-1.5 3-1.1 2.5.4-.4 1.5-.1 2.3.7 1.3 1.1 2.9 1.3 7.1.8 3-.4 7.3-.4 9.5.1 2.2.4 9.4 1 16 1.1 8.9.2 13.8.9 19.3 2.6 7.8 2.4 8.7 3.7 5.3 7.7-2.4 2.9-4.5 3-3.8.3.4-1.5-.3-2.4-2.8-3.6-4-1.8-20.2-1.3-29.3 1-3.2.8-7.3 1.7-9.4 2-4.9.8-18.4 5.2-23.3 7.6-2.2 1.1-5 3.6-6.3 5.5-2 2.9-2.2 3.7-1.1 5.7.7 1.3 1.3 3.3 1.4 4.5 0 1.2.8 3 1.8 4.1 2.5 2.7 2.2 3.9-2.2 8.8-4.6 5.2-12.3 17.6-12.5 20.1-.1 1.6 1 1.8 8.8 2.1l8.8.3 10-5.1c5.5-2.8 11.6-6.1 13.6-7.4 2-1.2 6.4-3.6 9.7-5.2 3.3-1.6 10.7-5.3 16.5-8.2 5.8-2.8 11.8-5.7 13.5-6.3 5.3-1.8 18.4-4 26.8-4.3 8-.4 16.2-2 18.2-3.6 4.3-3.5 38-4.1 85-1.5 5 .2 13.6.7 19.3 1 10.1.6 11.8.1 8.7-2.5-.8-.7-1.5-1.8-1.5-2.4 0-3.9-19.4-20.2-29.2-24.7-5.3-2.4-3.2-3.6 7.7-4.4 16.8-1.2 20.3-1.7 25.1-3 7.5-2.1 11.8-5.4 12.2-9.2.7-7.1-8.1-17-19.1-21.7-3.7-1.6-6.6-3.4-6.4-4 .4-1.2 7.7-1.4 17.9-.3 7.3.8 18.2 3.9 23.8 6.7 5 2.6 12.6 9.5 14.5 13.3 2.3 4.6 3.1 12 1.4 13.3-4.1 3.3-13.4 7.3-18 7.9-2.8.4-5.9.8-6.8 1-.9.1-5.1.6-9.4 1-4.7.5-7.6 1.2-7.4 1.8.2.6 3.3 2.9 6.9 5.1 13.7 8.5 20.2 15.8 19.6 21.8l-.3 3.3h9c5-.1 10.1-.3 11.5-.6 1.4-.4 3.9-.2 5.5.3 1.7.5 5 1.1 7.5 1.4 2.5.3 5.6.7 7 .9 1.4.2 2.8.4 3.3.4 2.3.3-.1 2.1-5 3.8-3.2 1.1-8.3 3-11.3 4.3-3 1.2-7.5 2.7-10 3.4-2.5.7-5.4 1.8-6.5 2.4-1.1.7-4.9 2.1-8.4 3.2-3.5 1.2-8 3.2-10 4.6-1.9 1.3-4.3 2.4-5.2 2.4-3.2 0-10.5 3.1-13.3 5.6-1.5 1.5-4.9 3.3-7.4 4-4 1.1 15.4 1.2 120.3.9 68.8-.2 128.8-.6 133.5-.8 4.7-.2 19.5-.8 33-1.2 13.5-.4 29-.9 34.5-1 9.1-.3 21.9-.6 91.5-2 21.7-.5 43.9-1.3 54-2 3-.2 10.2-.7 16-1 5.8-.4 12.1-.8 14-1 1.9-.2 7.6-.7 12.5-1 5-.4 10.6-.8 12.5-1 1.9-.2 7.1-.6 11.5-1 4.4-.3 9.1-.7 10.5-1 1.4-.2 5.9-.7 10-1 4.1-.4 8.6-.8 10-1 3.2-.5 14.3-1.6 19.5-2 3.8-.3 10.5-1 18.5-2 1.9-.3 11.2-1.4 20.5-2.5 9.4-1.1 17.7-2.2 18.5-2.5.8-.2 3.8-.7 6.5-1 2.8-.4 6.4-.8 8-1 1.7-.2 10.7-.6 20-.9 26.9-.9 30.8-1.3 53.5-5.1 5.9-1 9.2-1.5 11.8-1.9 1.5-.3 7-1.2 12.2-2.1 13.4-2.3 14-2.4 18.5-3 2.2-.4 9.4-1.7 16-3s13.1-2.6 14.5-2.9c9.2-1.7 38.1-7.8 42.8-9 3.1-.8 7.3-1.8 9.2-2.1 1.9-.3 4.9-1 6.5-1.5 1.7-.5 4.1-1.1 5.5-1.4 6.1-1 37.9-9.6 80.5-21.7 9.9-2.8 18.9-5.2 19.9-5.4 1.1-.3 4.1-1.2 6.8-2.1l4.8-1.6v-9.4c0-9.2 0-9.4-2.4-9.4-1.3 0-3.8-.6-5.6-1.4-2.8-1.1-4-1.1-7.9.1-6.8 2.1-32.6 7.1-41.2 7.9-4.1.4-12 .7-17.6.6-8.9-.1-10.8-.5-14-2.5-7.3-4.6-20-5.2-39.7-2.1-2.8.5-10.3 1.2-21.1 2-2.7.2-6.6.6-8.5.8-1.9.3-7.1.8-11.5 1.1-4.4.4-9.6.9-11.5 1.1-16.3 1.9-19.3 1.7-17.1-.9.8-1.1.4-2.3-1.9-5.3-1.6-2.1-3-4.4-3-5 0-1.7-2.2-3.2-5.2-3.8-1.4-.2-4-1.2-5.8-2.1-3.3-1.7-5.3-1.7-17 .2-1.9.3-5.3.6-7.5.8-2.2.1-5.1.7-6.5 1.2-1.4.6-5.2 1.4-8.5 1.7-3.3.4-8.5 1.4-11.6 2.2-3.1.8-7.3 1.4-9.3 1.4h-3.6v-4.9c0-3.5-.6-5.7-2.5-8.2-1.3-1.9-2.9-4.4-3.5-5.7-2.6-5.9-18.4-7.6-35.6-3.8-2.8.6-9.7 2.9-15.2 5.1-2.4 1-4.5 1.5-4.8 1.2-.3-.3.2-1.9 1-3.6 2.1-3.9 2-5.7-.3-8-1.1-1.1-2.4-2.8-2.9-3.8-1.3-2.3-5.9-2.2-13.2.2-6.9 2.3-9.4 1.3-4.9-1.9 4.6-3.3 14.9-8.2 19-9.1 2.8-.6 14.2-7.5 15.9-9.6.6-.8 5.3-2.4 6.3-2.1.4.1.7-.5.7-1.3s.6-1.5 1.3-1.5c1.5 0 14.8-6.7 20.2-10.1 2.2-1.4 5.8-3.4 8-4.3 2.2-1 4.9-2.3 6-2.9 1.1-.6 4.4-2.3 7.3-3.8 2.8-1.5 7.8-4.5 11-6.5 9.2-6.1 48.7-35.9 60.9-46 12.6-10.5 21-16.2 25.1-17 2.5-.5 3-.1 5.1 4.5 1.3 2.8 2.4 6.8 2.4 9s.4 3.8.9 3.5c3.5-2.2 19.9-30.9 22.8-39.9 1.9-6.1 8.1-20.8 9.4-22.4 2-2.7-1.5-.1-10.9 7.9-6.7 5.7-59 47.9-66 53.3-.5.4-2.7 2-4.8 3.6-2 1.6-8.3 5.7-14 9-5.6 3.4-10.9 6.6-11.7 7.1-.8.5-6 3.5-11.5 6.6-5.5 3.2-14 8.1-19 10.9-4.9 2.8-11.5 6.5-14.5 8.2-3 1.6-7.6 4.2-10.2 5.7-5.5 3.1-6.8 3.2-6.8.8 0-1.1 4.6-4.6 13.7-10.2 7.5-4.7 15.1-9.8 16.9-11.4 1.8-1.5 5.5-4.2 8.2-6 7-4.4 16.1-10.8 43.7-31.1 13.2-9.7 30.3-21.9 38-27.2 7.7-5.3 17.6-12.3 22-15.7 4.4-3.4 9.3-6.8 10.8-7.6 1.6-.8 3.3-2.2 3.8-3.1.5-1 7.1-6.6 14.6-12.5 7.6-5.9 14.8-11.8 16-13.1 1.2-1.3 2.6-2.3 3-2.3.4 0 3-2.1 5.7-4.6 2.7-2.5 8.1-6.3 12-8.3 10.9-5.7 19.3-12.8 41.9-35.6 21-21.1 23.1-23.3 27.7-29.5 1.4-1.9 3.7-4.6 5.3-6.2 1.5-1.6 2.7-3.2 2.7-3.6 0-.4 4.7-5.7 10.5-11.7l10.5-11v-25.6l-2.2 1.2c-1.3.7-6.1 4.9-10.8 9.4-4.7 4.5-13.6 13.1-19.9 19.1-6.2 6-14.7 14.9-18.9 19.9-9.6 11.4-11.6 13.3-16.6 15.5-2.3 1-7.2 4.8-11.1 8.5-8.1 7.6-15.4 13.4-20.6 16.3-2 1.1-9.1 5.7-15.8 10.3-6.8 4.6-13.3 9.1-14.4 9.9-8.2 5.5-24.9 17.4-26 18.3-.7.7-2 1.6-2.9 2.2-.9.5-4 2.6-6.9 4.6-3 2-7.8 5-10.7 6.8-2.9 1.8-5.6 3.9-6 4.5-.7 1.2-10.7 8.7-22.7 17.1-3.8 2.8-7.1 5.3-7.3 5.7-.2.5-.8.8-1.3.8s-3.9 2.2-7.6 4.8c-18.4 13-46.4 29.1-79.3 45.7-8.5 4.3-17.5 9.1-20 10.5-5.2 3.1-24.7 13.7-44 24-12.7 6.7-42 21.2-52 25.7-4.5 2.1-39.3 17.2-46 20-1.9.8-4.4 1.9-5.5 2.4-3.1 1.4-7 1.5-7 .2 0-1.4 8.8-7.3 10.9-7.3.7 0 2.4-.8 3.7-1.8 1.3-1.1 4.9-3.2 7.9-4.9 6.7-3.6 14-8.2 14-8.7 0-.3-4.3 1.7-9.6 4.4-5.2 2.6-11 5.4-12.7 6.1-1.8.7-7.7 3.4-13.2 6-5.5 2.6-12 5.6-14.5 6.7-2.5 1.1-8.5 3.9-13.3 6.1-4.9 2.3-9 4.1-9.2 4.1-.2 0-3.2 1.3-6.7 2.9-23.7 11-60.4 25.9-76.1 31-5.1 1.7-11 3.7-13.2 4.5-27.6 10.1-41.6 15-54 18.7-18.8 5.5-41 12.1-42.5 12.4-6.3 1.5-18.5 5.1-29 8.5-14.7 4.9-11.7 4-31 9.1-8.5 2.2-24.7 6.5-36 9.6-25 6.7-35 9.4-37 9.8-.8.2-8.7 2.4-17.5 5s-18.4 5.4-21.3 6.2c-5.5 1.5-9.4 1.1-7.5-.8.8-.8 33.9-12.4 38.3-13.4 1.7-.4 5.7-1.5 27-7.5 24.5-6.9 46.2-12.8 49.5-13.5 4.8-1 31.4-9 48-14.4 18.4-6.1 34.9-11 41.5-12.6 8.2-1.9 63.7-21 97-33.2.8-.4 2-.7 2.5-.9 4.5-1.3 34.5-13.2 35.6-14 .8-.6 2.5-1.5 3.9-1.9 1.4-.3 4.8-1.7 7.5-3.1 2.8-1.3 8.2-3.7 12-5.5 3.9-1.7 7.8-3.5 8.7-4 1-.5 2.2-.9 2.7-.9s6.9-2.9 14.3-6.4c23.3-11.2 29-13.7 32-14 1.7-.2 4.4-1.4 6.1-2.7 1.7-1.2 4-2.2 5-2.2 1.1.1 3.6-.9 5.7-2.2 2.1-1.3 14.8-7.9 28.2-14.6 13.4-6.7 25-12.7 25.8-13.3.8-.7 4-2 7-3 3-1.1 9.7-3.8 14.7-6.2 5.1-2.4 9.6-4.4 9.9-4.4.3 0 2-1 3.7-2.2 1.6-1.2 8.7-5.1 15.6-8.6 6.9-3.6 16.2-8.8 20.6-11.7 4.4-2.8 11.9-7.5 16.8-10.4 4.8-2.9 8.5-5.7 8.1-6.2-.3-.5-1-.7-1.5-.4-.5.4-.9.2-.9-.3 0-2 3.7-5.3 9-8 13.3-6.9 23.7-12.8 25.7-14.8.6-.6 5.5-3.9 10.7-7.4 5.3-3.5 9.6-6.8 9.6-7.4 0-.6 2.5-2.6 5.5-4.4 3-1.8 6-4.1 6.7-5.1.7-1 1.8-2 2.4-2.2 1.6-.6 17.3-11.3 17-11.6-.1-.1-3.3.9-7.2 2.4-7.7 2.9-21.9 6.8-28.5 7.8-2.4.4-5.1.9-5.9 1-.8.2-3.9.4-6.7.4-5.3.1-5.3.1-5.3 3.4 0 1.8-1.1 4.9-2.6 7-1.4 2.1-2.3 4.1-2 4.4.7.7-2.6 6.9-6.1 11.5-4 5.1-17.3 14.8-20.5 14.8-.6 0-6 2.2-11.9 5-10.9 5-30.2 11.4-37.3 12.5-2.1.3-6.4.8-9.5 1.1-7.5.7-8.7.9-14.6 2.8-5.8 1.8-9.3 2.4-15.2 2.5-2.3.1-4.8.7-5.5 1.3-.7.7-1.8 1.4-2.3 1.4-.6.1-3.9.5-7.5.9-12.9 1.4-13 1.4-13-.6 0-2.2 51.9-54.4 55-55.4 2.8-.9 34.6-22.3 38.6-26 1.2-1.1 22.7-17.3 33.7-25.4 7.2-5.4 7.5-4.1.5 2.8l-4.3 4.3 5.5-2.7c5.3-2.7 24-14.3 25-15.6.3-.3 4-3.1 8.4-6.2 10.1-7.3 19.5-16.2 28.1-26.8 3.8-4.6 8.5-9.7 10.4-11.2 2-1.6 7.7-7 12.6-12.1 5-5.1 10.4-10.3 12-11.7 1.7-1.3 5.3-4.2 8-6.4 10.2-8.1 19.3-17 32-31 4.9-5.5 11.3-12.5 14.2-15.5 5.3-5.6 6.3-6.8 19.8-25 4.3-5.8 8.1-10.7 8.5-11 1.1-.8 1.9-5 .9-5-1.6 0-.9-2.5 1.6-6 3.2-4.3 3.2-5.6.1-2.7-5.2 4.9-8.7 7.7-9.4 7.7-.4 0-3.6 2.5-7.2 5.4-6.2 5.2-10.2 6.7-6.2 2.2 1.1-1.1 2.5-3.1 3.1-4.4 1.8-3.4 13-18.2 16.6-21.8 1.7-1.8 4.7-4 6.7-5 14.6-7.7 23.5-13.2 39.5-24.6 4.5-3.2 9.4-6.4 11-7.1 5.6-2.4 17.3-11 24.8-18.2 4.2-4 9.1-8.5 10.9-9.8 10.5-8.1 16.8-16.4 7.9-10.5-3.7 2.4-7.1 3.9-10.3 4.4-7.8 1.3-8.8 1.9-15 7.8-3.6 3.4-9.9 8.9-14 12.1-4.1 3.3-7.7 6.3-8 6.6-.9 1.3-16.5 12.2-18.7 13.2-1.3.6-2.3 1.4-2.3 1.9 0 .4-.4.8-.9.8s-7.9 4.7-16.4 10.4c-17.6 11.7-22.9 14.6-28.9 15.3-4.9.7-4.6-.8.8-3.3 2-1 6.6-4.5 10.3-7.8 3.7-3.4 9-7.9 11.8-10.1 2.8-2.2 6.3-5.7 7.8-7.7 1.6-2 6.4-7 10.8-11 4.5-4 12.8-12 18.7-17.8 5.8-5.8 14.1-13.7 18.5-17.5 9.5-8.4 18.2-17.1 22.4-22.4 5.5-6.9 3.4-6.5-4.6.9-5 4.6-6.4 5.8-21.8 17.5-4.9 3.7-12.2 9.8-16 13.4-19.2 18.1-30 27-46.8 38.4-15.9 10.9-7.6-2.6 11.8-19.1 3.7-3.2 4.2-3.9 1.8-2.6-3.2 1.8-13.4 9.8-19 14.9-5.3 4.9-10.2 8.8-21.8 17-6 4.4-11.1 8.3-11.3 8.7-.2.4-.8.8-1.3.8-1.1 0-13.7 8.9-18.8 13.3-10 8.6-52 35.1-70.8 44.7-21.5 11-54.8 26-57.8 26-2.6 0 4.1-5.3 11.5-9 1.4-.7 2.9-1.9 3.3-2.6.4-.8 1.2-1.4 1.7-1.4.6 0 3.9-1.9 7.4-4.3 7.2-4.7 20.1-12.7 27.9-17.2 2.9-1.7 7.6-4.6 10.5-6.6 4.2-2.9 5-3.8 3.9-4.7-2.4-2.1-11.5 1.5-22.2 8.7-5.5 3.8-14.6 9.1-20.3 11.9-5.6 2.8-12.2 6.5-14.6 8.2-2.5 1.6-4.8 3-5.1 3-2.2 0-20.5 11.9-25.7 16.8-3.5 3.1-7.9 6.6-9.8 7.7-3.9 2.1-8 5.9-8 7.3 0 1.2 8.3 3 17.2 3.6 2.3.2 1.3 1.9-3.4 5.4-9.9 7.3-35.2 23.5-43.8 28-4.7 2.4-11.5 6.2-15.1 8.3-14.8 8.6-29.3 14.9-37.8 16.4-4.8.8-21.9 7.9-21.9 9-.1.5.5.9 1.2.7.7-.1 1.8.3 2.4 1.1 1.3 1.5-1.8 8-6 12.7-1.6 1.6-2.8 3.4-2.8 3.9 0 1.6-8.3 10.2-15.9 16.3-4.2 3.4-8.3 6.9-9.1 7.8-9.5 9.7-30.8 23.3-57.3 36.7-11.5 5.8-12.2 6.4-29.1 22.9-17.5 17.2-27.7 26.6-42.1 39-4.4 3.7-8.2 7.1-8.5 7.4-.3.3-4.5 3.9-9.5 7.9-11.7 9.8-20.9 17.4-21.5 18.1-1.5 1.5-21.4 17.1-33.5 26.1-17.3 13-24.3 17.9-36.5 25.4-5.2 3.2-13.4 8.7-18.2 12.1-4.8 3.5-9.6 6.7-10.5 7.2-2 1-9.3.4-9.3-.8 0-.4 5.3-4.3 11.8-8.5 15.9-10.6 58-42.9 68.8-53 .6-.5 3.7-3.3 7-6 8.5-7.3 37.5-32.7 40-35 1.1-1.1 5.6-5.1 10-9 11.2-9.9 46.4-45.1 46.4-46.5 0-.6-1.9.2-4.2 1.8-4.4 2.9-8.9 5.4-16.5 9.2-6.5 3.1-5.5.6 3-8.2 3.9-4.2 12.5-13.2 19.1-20.1 6.5-6.9 13.6-13.8 15.8-15.3 5-3.7 19.1-14.6 19.8-15.3.3-.4 2.8-2.4 5.7-4.5 2.9-2.2 4.9-4.4 4.6-4.9-.3-.6-.2-.7.3-.4 1.7 1 5.5-2.9 6-6.3 1.2-7.4 3.7-9.7 26.9-24.9 2.1-1.4 8.5-6 14.1-10.2 16-12 30.3-21 38.4-24.1 12.5-4.9 11.1-5.9-3-2.2-7.1 1.9-9.7 3.1-20.5 9.8-4.9 3-14.1 8.5-20.3 12.3-6.2 3.7-13.2 8-15.5 9.5-4.9 3.2-6.7 4.1-24.2 13.1-21.2 10.8-44 21.4-45.3 20.9-.7-.2-1.2-1-1.2-1.8 0-1.7 7.8-9.4 9.5-9.4.7 0 1.8-.6 2.4-1.3.9-1.1 0-1.1-5.2-.1-7.1 1.5-11.3 2.2-29 4.8-4.9.8-7.4 2.1-18.1 10-5 3.6-9.2 6.4-9.4 6.2-.9-1 3.6-6.2 8.7-9.9 3.1-2.2 6.1-4.8 6.8-5.8.7-.9 2.6-2.2 4.2-2.9 1.7-.7 2.8-1.6 2.5-2.2-1-1.6 1.6-3.6 10.9-8.4 15.3-7.8 34.4-18.7 42.7-24.4 8.1-5.6 21.2-11.2 25.9-11.1 3.6.1 7.7-1.7 12.9-5.6 2.9-2.2 4.1-2.4 10-2.1l6.6.3 3.8-6.9c5-9 8.2-12.9 25.7-30.5 19-19.1 27.1-28 28.4-31.1.6-1.4 3.5-6.2 6.5-10.8 4.2-6.6 6.5-9.1 11-11.9 9.7-6 22.3-15.2 25.2-18.3.3-.3 6.8-5.4 14.5-11.4 27.8-21.4 33.5-26.1 32-26.4-.8-.2-3.4 1-5.7 2.6-2.4 1.6-5 3.1-6 3.5-4.1 1.5-39.2 23.2-43.5 26.9-2.6 2.2-11.1 8.8-18.8 14.6-7.7 5.8-17.5 13.5-21.9 17-4.3 3.5-8.1 6-8.5 5.7-.3-.4.3-1.3 1.4-2.1 5.8-3.8 5.9-4.4.5-2.3-3 1.2-6.6 2.5-8 3.1-1.4.5-6.5 2.9-11.5 5.2-4.9 2.4-9.7 4.6-10.5 5-.8.3-6.1 3.1-11.8 6.1-9.9 5.3-13.2 6.5-13.2 4.6 0-.5 6.1-4.9 13.6-9.8 7.4-4.8 16.2-10.7 19.4-13 3.3-2.4 8.8-5.2 12.2-6.4 3.5-1.2 9.7-3.8 13.8-5.9 8.6-4.2 32.3-18.3 39.1-23.2 10.9-7.7 16.2-12.2 15.2-12.5-2.1-.7-11.7 4-18.8 9.3-3.8 2.8-10.1 6.8-13.9 8.9-17.9 9.9-28.8 13.9-18.5 6.8 7.7-5.3 9.9-7.6 3.9-4.2-3 1.8-15.4 8.1-27.5 14s-21 10.8-19.7 10.9c3.2 0 2.7 1.3-1.3 3.4-1.9 1.1-4.1 2.9-5 4.2-3.2 4.9-19.5 17.9-30.5 24.4-33.5 19.8-46.2 25.1-63.8 26.4-7.3.6-9.4-.4-6.8-3.3 1.1-1.2 1.6-2.2 1.3-2.2-.4-.1-1.1-.3-1.7-.4-.5-.1-1.5-.3-2.1-.4-.6 0-.9-.7-.6-1.5 1.1-2.7-.7-2.5-7 .9-6.8 3.7-13.3 5.5-13.3 3.7 0-1.3 5.2-5.3 10-7.7 4.5-2.3 4.3-2 2.9-4.3-1.2-1.9-1.4-1.9-7.8 1-3.6 1.7-8.6 3.9-11.1 5s-8.5 4-13.5 6.3c-11.1 5.2-14.1 6.3-18.4 6.9-4.6.6-15.8 4.2-42.6 13.7-19.1 6.7-27.7 9.2-47 14-2.2.5-9.6 1.8-16.5 2.8-6.9 1.1-15 2.8-18 3.9s-8 2.3-11 2.7c-3 .3-8 1.3-11 2s-6.8 1.6-8.5 1.9c-1.6.2-7.3 1.4-12.5 2.6-5.2 1.2-10.2 2.3-11 2.5-.8.2-2.6.8-4 1.3-2.4 1-2.4 1.1 2.3 3.2 2.6 1.1 4.7 2.2 4.7 2.4 0 .2-1.9-.1-4.2-.7-6.3-1.7-19.3-1.3-29.9.9-1.3.2-4 .7-5.9.9-7.2 1-20 4-20 4.6 0 1.2 4.8 3.8 7.9 4.4 1.7.3 6.2 1.7 10 3.1 6.7 2.5 6.9 2.7 6 5.1-.5 1.3-.9 3.3-.9 4.5 0 3.6-3.1 8.6-8.3 13.5-2.8 2.6-9 8.7-13.7 13.4-9.2 9.3-20.1 17.7-46.6 36.1-17 11.8-27.9 21.2-27 23.4.3.7-.2 1.8-1 2.5-1.2 1-2.6.9-7-.5-2.9-.9-5.4-2-5.4-2.4 0-1-5.6-4.3-6.2-3.7-.2.2-.5-.6-.5-1.8-.1-1.2-.9-2.7-1.8-3.3-.8-.6-1.5-1.8-1.5-2.6s-.5-1.9-1.2-2.6c-.9-.9-.8-1.6.6-3 1.1-1.3 1.8-4.2 2.1-8.8.2-3.9 1.2-8.8 2.4-11.4 1.1-2.4 1.7-4.8 1.5-5.2-.3-.4-.1-.8.3-.8 1.3 0 4.3-5.6 3.5-6.5-.4-.5-.2-.6.3-.2.6.3 2.6-1.8 4.5-4.6 5.9-8.8 38.1-50.2 48-61.7 3.1-3.6 5.9-7 6.3-7.6 1-1.7-21.1 6.2-25.2 9-4 2.8-10.1 4.5-10.1 2.8 0-.6-4.5.4-10.2 2.3-5.7 1.9-17.7 5.7-26.8 8.5-19.2 6-34.9 12.1-51 19.8-6.3 3-18.7 8.4-27.5 11.9-22.7 9.1-34.5 14.4-34.5 15.4 0 .5-.7.9-1.6.9-.8 0-3 1.1-4.8 2.5-1.8 1.4-3.5 2.5-3.9 2.5-.3 0-4.2 2.3-8.6 5-9.6 5.9-22.5 12.6-26.3 13.5-7.6 1.9.4-5.6 11.4-10.6 2-1 5.4-2.5 7.5-3.5 2.1-1 7.9-4.5 12.8-7.9 5-3.4 11.3-7.4 14-9 2.8-1.5 6.1-3.5 7.5-4.5 5.7-4 33.1-19.6 43.4-24.7 6.1-3 13.1-6.5 15.6-7.7 6.4-3.2 17.9-9.5 22.2-12.3 2.1-1.3 4.2-2.3 4.8-2.3.5 0 1-.5 1-1 0-.6.7-1 1.5-1 .9 0 3.8-1.2 6.7-2.7 2.8-1.5 9-3.8 13.7-5.2 5.9-1.8 9.9-3.7 12.6-6 2.2-1.8 3.4-3 2.8-2.7-2.1 1.2-1.5-1.6 1.5-6.7 2.3-4.1 3.7-5.3 9.8-8 9.5-4.3 31.5-17 38.8-22.4 5.7-4.2 11.8-7.7 31.1-17.7 9.7-5.1 12.9-6.5 42.7-18.1 16.9-6.5 23.2-9.5 20.2-9.5-4.3 0-48.4 11.4-52.8 13.7-1.5.8-11 3.9-21.1 6.8-10.1 2.9-20.3 6.2-22.8 7.3-2.8 1.2-5 1.7-5.8 1.1-1.5-.9-5.3-.6-18.1 1.3-5.7.8-9 .9-12.5.1-5.2-1.2-2.2-2.2-36.3 11.8-5.8 2.3-12 5.4-13.8 6.8-1.8 1.3-4.5 2.6-5.9 2.7-1.4.2-7.6 2.3-13.7 4.7-6.1 2.5-12.6 4.8-14.3 5.2-1.8.3-3.9 1.4-4.5 2.4-1.9 2.5-15.4 8.6-16.2 7.2-.8-1.2 7.2-8.8 11.4-10.9 1.4-.7 3.9-2.1 5.5-3.1 1.7-1.1 3.6-2 4.3-2 1.1-.1 9.7-6.5 12.2-9.1 3.2-3.3 12.8-10.1 22.5-16.1 6.6-4 13.8-8.8 16.1-10.6 2.3-1.8 4.4-3.3 4.8-3.3 1.7 0 9.6-4.1 9.6-5 0-.6-1.2-1-2.7-1-2.6 0-8.6-1.7-10.8-3.1-2.1-1.3-8.3.1-16 3.6-4.4 2.1-11.4 5.3-15.5 7.2-6.9 3.3-11.8 5.6-30 14-3.6 1.7-8 3.4-9.8 3.8-1.8.4-9.3 3.4-16.5 6.7-23.9 10.9-37.1 15.6-38.3 13.7-1-1.7 14-13.7 26.8-21.4 1.4-.8 5.5-3.3 18.8-11.5 3.9-2.4 40.3-23.3 64.5-37 14.9-8.4 27.5-15.7 28-16.3.7-.7.7-.8 0-.5-.5.3-3.1.9-5.7 1.2-6.4.9-5.6-.9 3-6.7 8.1-5.3 23.2-14.7 23.8-14.7.2 0 2.1-1.1 4.2-2.3 2-1.3 7.8-4.5 12.7-7.2 5-2.6 11.7-6.2 15-8 13.2-7.1 31.6-16.3 43-21.4 6.6-3 22.6-10.7 35.5-17.1 12.9-6.5 24.7-12.1 26.3-12.4 1.5-.4 7.2-3.6 12.7-7.1 5.5-3.6 10.4-6.5 10.8-6.5.4 0 1.8-1 3.2-2.1 9.7-7.8 40-26.6 49.5-30.6 3.7-1.6 6.7-3.3 6.7-3.8-.1-.5-3.1-1.7-6.7-2.7-7.2-2-12.5-4.4-12.5-5.6 0-.4 3.5-1.9 7.8-3.3 7.5-2.5 7.7-2.6 7.4-5.6-.5-5.2 3.8-8.4 18-13.1 6.8-2.2 14.3-4.5 16.8-5.1 4.5-1 17.4-3.6 22-4.5 1.4-.2 4.5-.9 7-1.5 2.5-.5 5.6-1.2 7-1.4 6.8-1.3 16.1-4.1 17.7-5.3 2.5-1.9 1-1.7-12.5 1.1zm-421.3 239.1c-6.2 6.5-26.7 18.8-29.4 17.7-1.3-.4-1.3-.8-.3-2.1 1.8-2.1 16.1-11.3 22.8-14.6 3-1.5 5.9-3.2 6.5-3.7.5-.5 1.6-.9 2.4-.9 1 0 .3 1.3-2 3.6zm-92.6 25.6c-.2 3.6 0 3.8 1.5 2.7.9-.8 1.4-.9 1-.5-.4.5-.2 1.6.5 2.5 1.1 1.4 1 1.5-.7.1-1.8-1.4-1.8-1.3-1.2.8.4 1.2.3 2.2-.2 2.2-.8 0-1-.6-1.4-5-.1-1.1-.5-2-.8-2-.3 0-.6-1.1-.6-2.3-.1-1.3.4-2.4 1-2.4.7 0 1.1 1.5.9 3.9zm673.7.2c0 1-15.1 10.6-16.7 10.5-1.7 0-1.7-.1 0-1.2 1.1-.7 4.4-3.1 7.5-5.4 4.8-3.6 9.2-5.4 9.2-3.9zm239.1 9.8c-1.1 1.8-2.7 4.6-3.6 6.3-1.4 2.6-10.2 9-18.5 13.3-9.3 4.9-35 13.8-32.4 11.2.9-.8 8-4.8 20.6-11.6 4-2.1 6.5-4.1 6.2-4.8-.6-1.4 10.4-8.9 18.6-12.7 6.7-3.1 10.4-4.7 10.8-4.8.2-.1-.5 1.4-1.7 3.1zm-909.8-.2c-.3 1.2-.8 1.9-1.1 1.6-.5-.6.5-3.6 1.2-3.6.2 0 .2.9-.1 2zm636.8 5c-1.9 1.6-5 3.5-6.9 4.1-1.8.6-5.6 2.6-8.5 4.5-5.4 3.6-6.7 4-6.7 2.4 0-1.1 10.5-7.3 15.1-8.9 1.9-.6 4.8-2 6.4-3.1 4.3-2.9 4.6-2.4.6 1zm-633.7 5.9c-.2.3-1.2-.3-2.2-1.3-1.6-1.7-1.6-1.8.5-.5 1.2.7 2 1.5 1.7 1.8zm915.6 0c0 .4-4.3 7.3-9.6 15.2-5.3 7.9-11.1 17.1-13 20.5-5.1 9.1-30.7 34.7-40.4 40.4-6.5 3.8-14 8.7-26.5 17.4-1.6 1.2-3.5 2.6-4.2 3.3-1.8 1.6-12.9 8.3-13.8 8.3-.4 0-2.3 1.3-4.2 3-4 3.6-4.3 3.6-7.2.9-2.2-2.1-2.2-2.1-.3-4.3 2.5-2.7 3.4-5.4 2.1-6.1-1.8-1.2-10.3 2.8-15.5 7.2-2.8 2.4-5.4 4.3-5.8 4.3-.9 0-13.6 7.9-16.1 10-1.1 1-5 3.4-8.7 5.3-3.7 2-7.5 4.1-8.5 4.6-8.5 4.7-25.4 12.1-26.3 11.6-1.5-.9 1.7-4.3 9.5-10.3 3.3-2.5 6.2-4.9 6.5-5.3.3-.3 1.9-1.4 3.7-2.2 3.9-2.1 12.3-9.3 11.7-10.1-.2-.3-.1-.4.2-.1.8.5 6.6-3.4 7.7-5.2.4-.7 1.3-1.3 2-1.3 1.3 0 13.9-9.8 14.5-11.2.2-.4.9-.8 1.6-.8.6 0 2.9-1.6 4.9-3.5 2-1.9 4-3.5 4.3-3.5.3 0 2.4-1.5 4.7-3.4 9.6-7.8 41.6-29.9 53.4-36.9 7.1-4.2 13.7-8.4 14.9-9.4 2.5-2.2 3.4-2.8 15.6-10 6-3.6 10.1-6.7 10.8-8.3 1.1-2.5 10.2-9.2 19-14 2.6-1.4 6-3.6 7.6-4.8 3-2.2 5.4-2.8 5.4-1.3zm-323 14.9c0 3.4-17.2 16.4-38.5 29.2-13.1 7.9-23.3 12.9-26.2 13-1.8 0-1.6-2.5.3-6.6 1.2-2.5 2.6-3.6 5.3-4.4 2-.5 6.1-2.5 9.1-4.3 3-1.8 8.5-4.7 12.1-6.4 6.9-3.2 29.7-16.4 33.8-19.5 2.5-1.9 4.1-2.3 4.1-1zm-94.7 57.4c1.4 1.2 1.5 1.8.2 6.7-.8 3-2 5.8-2.7 6.3-.7.4-4.5 2.6-8.4 4.8-6.8 3.7-8.3 4.2-16.5 5.6l-3.6.6-.1-4.6c-.3-5.8 3.1-9.9 12-14.4 11.8-5.9 16.3-7.1 19.1-5zM895 1409.4c0 .3-.4.8-1 1.1-.5.3-1 .1-1-.4 0-.6.5-1.1 1-1.1.6 0 1 .2 1 .4zm-11.6 2.2c.3.8.2 1.2-.4.9-.6-.3-1-1-1-1.6 0-1.4.7-1.1 1.4.7zm6.6-1.2c0 .2-.7.7-1.6 1-.8.3-1.2.2-.9-.4.6-1 2.5-1.4 2.5-.6zm16.3 1.1c-.3.9-.8 1.4-1 1.1-.3-.3-.2-.9.2-1.5.9-1.6 1.5-1.3.8.4zm-29.3.3c0 .5-.7.9-1.5.9s-1.2-.4-.9-.9c.3-.4.9-.8 1.5-.8.5 0 .9.4.9.8zm4-.4c0 .2-.7.7-1.6 1-.8.3-1.2.2-.9-.4.6-1 2.5-1.4 2.5-.6zm10.5.6c-.3.5-1.2 1-1.8 1-.7 0-.6-.4.3-1 1.9-1.2 2.3-1.2 1.5 0zm5.5.1c0 .5-.4.8-.9.5-.5-.3-1.2.1-1.5 1-.3.8-1 1.2-1.6.9-.5-.3-1 .3-1 1.4 0 1.2.6 2 1.3 1.8.7-.1 1.2.8 1.2 2.3 0 1.4-.5 2.4-1.1 2.3-.5-.1-1.6.8-2.3 1.9-1.1 1.8-1.1 2 .4 1.5.9-.4 1.4-.3 1.1.2-.3.5.1 1.1.9 1.5.8.3 1.5 1.1 1.5 1.8 0 .8-.3.9-.8.3-.4-.6-1.9-1.8-3.4-2.8-1.6-1-2.8-2.4-2.8-3.2 0-.8-.6-1.4-1.2-1.3-1.9.4-1.6-4.5.2-4.9.9-.3 1.1-.1.5.4-1.4 1.1-1.9 4.7-.6 3.8.6-.3 1.5.4 2 1.6l.8 2.3 1.2-2.2c.7-1.2 1.6-2 2.2-1.7.5.4.9-.3.9-1.4 0-1.2-.6-2-1.2-1.9-.8.2-1.3-.7-1.3-2 0-1.2.4-2.1.8-2 .5.2 1.3-.5 1.8-1.5 1.1-1.9 2.9-2.3 2.9-.6zm-16.7 2.5c-.5 1.5-.3 1.5 2.5 0 3.1-1.6 6.2-1.3 6.2.7 0 .8-.4.7-1.2-.1-.8-.8-1.9-.8-4.4.3-3.3 1.4-5.2.6-3.9-1.5 1-1.6 1.5-1.2.8.6zm20-.6c-1.2.5-2.4 1.9-2.8 3.1-.6 1.7-.9 1.9-1.6.8-.5-.8-.9-1.9-.9-2.4 0-.6.5-.3 1 .5.8 1.3 1 1.3 1-.2 0-1.7 1.4-2.6 4-2.7.8 0 .5.4-.7.9zm-29.7.9c-.4.5-.1 1.1.6 1.3.8.3.6.6-.4 1-1.1.5-1.5.2-1.3-1 .5-2.3.4-2.2 1.1-2.2.3 0 .3.4 0 .9zm3.1 1.3c-.3.8-.6.5-.6-.6-.1-1.1.2-1.7.5-1.3.3.3.4 1.2.1 1.9zm35-1.6c-.3.3-1.2.4-1.9.1-.8-.3-.5-.6.6-.6 1.1-.1 1.7.2 1.3.5zm9.9 1.8c0 1.4-.3 2.3-.7 2-.6-.3-.6-2.2 0-4.2.3-1 .7.2.7 2.2zm9.8.6c-.6.6-1 .2-1.1-1.2-.2-1.6.1-1.8 1-.9.7.7.8 1.4.1 2.1zm-52.1.5c-.7 2.1-1.2 1.9-1-.4 0-1.1.5-1.8.9-1.5.4.3.5 1.1.1 1.9zm26.3-1c-.3.9 0 1.5.9 1.5.8 0 1.5.5 1.5 1 0 1.7-3.3-.5-3.6-2.4-.1-.9.2-1.6.8-1.6.6 0 .8.7.4 1.5zm12 0c-.1.8-.6 1.8-1.1 2.2-.4.4-.5.2-.1-.5.5-.7.1-1.2-1.1-1.3-1.6 0-1.6-.1.2-.9 1.1-.5 2.1-.9 2.2-.9.1-.1 0 .6-.1 1.4zm8.7 0c-.3.9-.8 1.4-1 1.1-.3-.3-.2-.9.2-1.5.9-1.6 1.5-1.3.8.4zm9.7-.8c0 .7-2.8 3.3-3.6 3.3-.3 0-.1-.6.5-1.3.6-.8.9-1.6.6-1.9-.3-.2.2-.5 1-.5s1.5.2 1.5.4zm-48 .8c0 .2-1 .9-2.2 1.5-2.2 1.1-2.2 1-.4-.4 2.1-1.7 2.6-1.9 2.6-1.1zm-5.4 1.7c.5.7.3.8-.6.3-1-.6-1.2-.4-.7.8.3 1 .2 1.7-.3 1.7-1.1 0-1.3-2.3-.3-3.3.9-.9 1.1-.9 1.9.5zm57.4-.1c0-.6.5-1.1 1.1-1.1.8 0 .7.6-.2 1.6-1.2 1.5-1.1 1.6 1.1 1 2-.6 2.2-.5.8.4-2 1.2-4.4.4-5.2-1.7-.5-1.3-.4-1.4.9-.3 1 .8 1.5.9 1.5.1zm-62.4 2.7c-.3.3.6 1.3 2.1 2.3 2.4 1.6 2.5 1.8.6 1.6-1.2 0-2-.4-1.7-.8.2-.4-.3-1-1.2-1.3-.9-.4-1.4-.9-1.1-1.3.4-.3-.1-1.2-1.1-2-1.5-1.3-1.4-1.3.6-.3 1.3.7 2.1 1.4 1.8 1.8zm-17.6-1.4c0 .3-.4.8-1 1.1-.5.3-1 .1-1-.4 0-.6.5-1.1 1-1.1.6 0 1 .2 1 .4zm13.5.6c.3.5.1 1-.4 1-.6 0-1.1-.5-1.1-1 0-.6.2-1 .4-1 .3 0 .8.4 1.1 1zm20.5.2c0 .4-.4.8-.9.8-.6 0-1.2-.4-1.5-.8-.3-.5.1-.9.9-.9s1.5.4 1.5.9zm11-.2c1.8 1.2.2 1.2-2.5 0-1.3-.6-1.5-.9-.5-.9.8 0 2.2.4 3 .9zm15.9-.1c1 .7.7.9-1.2.8-1.4-.1-2.3-.5-2-1 .6-.9 1.5-.9 3.2.2zm3.1 1.1c-.6 1.1-1.5 2-2 2-.6 0-.2-.9.7-2 1-1.1 1.9-2 2.1-2 .1 0-.2.9-.8 2zm3.4-.5c-.4.8-.8 1.5-1 1.5-.2 0-.4-.7-.4-1.5s.4-1.5 1-1.5c.5 0 .7.7.4 1.5zm4.6-.5c.8.5 1.1 1 .5 1-.5 0-1.7-.5-2.5-1s-1-1-.5-1c.6 0 1.7.5 2.5 1zm-20.4 2c1.5-.2 1.6 2.7.1 4.1-.7.8-1.2 2-1.1 2.7.1.7 0 .8-.3.2-.2-.5-.9-.7-1.5-.4-.5.3-.4-.3.4-1.5.7-1.2 1.6-2.1 2-2.1 1.8 0 .6-2.6-1.2-2.7-1.1-.1-1.8.2-1.5.7.3.4.2 1.5-.1 2.4-.5 1.2-1 1.4-1.9.6-.7-.6-2.1-.8-3.1-.4-1.6.5-1.6.4-.4-.5 1.3-1 1.3-1.2 0-2.1-1.1-.7-1.7-.4-2.3 1.5-.5 1.4-1.2 2.5-1.7 2.5-1.3 0-2-2.9-.8-3.6.7-.4.8-.3.4.4s-.3 1.2.2 1.2 1.2-.9 1.5-2.1c.5-1.8.9-1.9 2.7-.9 1.7.9 2.6.8 4.3-.3 1.3-.9 2.4-1.1 2.8-.5.3.5 1 .9 1.5.8zm4.2.5c0 1.4-.4 2.7-.8 3-.3.2-.6-.6-.5-1.8.1-1.2-.3-2.5-.9-2.9-.7-.5-.5-.8.5-.8 1.1 0 1.7.9 1.7 2.5zm-49.8-.5c0 .5-.5 1-1.1 1-.5 0-.7-.5-.4-1 .3-.6.8-1 1.1-1 .2 0 .4.4.4 1zm22 2.2c0 1.9-1.6.5-1.7-1.4-.2-1.8 0-2 .7-.8.5.8 1 1.8 1 2.2zm40.9-1.5c-1.2 1.5-1.2 1.6.4 1 1.1-.4 2-.1 2.3.8.4.8 1.1 1.2 1.7.8.6-.3.7-.1.3.6-.4.6-1.2.8-1.8.5-.7-.5-.9-.2-.6.8.4.8 0 1.5-.7 1.5-1 0-1.1-.5-.4-1.8 1.3-2.5 1.3-2.6-2.6-2.4-1.9.1-3.5-.2-3.5-.8 0-.5.7-.6 1.5-.3.9.3 1.8-.1 2.1-.9.4-.8 1.1-1.5 1.6-1.5.6 0 .4.8-.3 1.7zm7.1-.8c0 .6-.4 1.2-.8 1.5-.5.3-.9-.1-.9-.9s.4-1.5.9-1.5c.4 0 .8.4.8.9zm-63.8.8c-.6.2-1 .8-.8 1.2.3.4-.5.8-1.6.8-2 .2-2 .1-.2-1.2 1.1-.8 2.4-1.4 2.9-1.4.6 0 .4.3-.3.6zm11.8.3c.8.5 1.1 1 .5 1-.5 0-1.7-.5-2.5-1s-1-1-.5-1c.6 0 1.7.5 2.5 1zm36.4.5c1.1.8 1.6 1.5 1 1.5-.5 0-1.8-.7-2.8-1.5-1.1-.8-1.6-1.5-1-1.5.5 0 1.8.7 2.8 1.5zm20.6 2c0 .5-.5.3-1-.5s-1-2-1-2.5c0-.6.5-.3 1 .5s1 1.9 1 2.5zm1.7-1.3c-.3.8-.6.5-.6-.6-.1-1.1.2-1.7.5-1.3.3.3.4 1.2.1 1.9zm7 .3c0 .8-.4 1.2-.9.9-.5-.3-.6-1-.3-1.5.9-1.3 1.2-1.1 1.2.6zm-72 3.5c.2 1.8.1 2.1-.6 1-.5-.8-.7-1.8-.5-2.2.3-.4 0-.8-.5-.8-.6 0-1.1.6-1.2 1.2 0 1-.2 1-.6 0-.2-.6-1-.9-1.5-.6-.6.4-.8.3-.5-.3.4-.6 1.6-1 2.8-.9 1.5.1 2.3.9 2.6 2.6zm7.9.3c-.2 1.5-1 2.2-2.4 2.1-1.4 0-2 .5-1.9 1.8.1 1 .7 1.8 1.4 1.8s1.3.5 1.3 1c0 .7-.6.7-1.9.1-2.6-1.4-2.3-5.7.4-5.3 1.5.2 2.1-.4 2.2-1.8.2-1.8-.1-1.9-1.3-1-.9.8-1.4.9-1.4.2 0-1.2 2.1-2.2 3.2-1.5.4.2.6 1.4.4 2.6zm3.2-.8c-.6 1.4-1.3 2.3-1.5 2.1-.5-.5 1.5-4.6 2.2-4.6.3 0-.1 1.1-.7 2.5zm31-.2c.2.9-.1 1.7-.7 1.7s-.8-.7-.5-1.5c.5-1.1.2-1.3-1.2-.8-1.2.4-1.5.3-1-.6 1-1.6 3-.9 3.4 1.2zm-60.5.2c-.3.9-.8 1.4-1 1.1-.3-.3-.2-.9.2-1.5.9-1.6 1.5-1.3.8.4zm11.9 2.4c-.5 1.4-.3 1.4 1.1.2 1.1-.9 1.7-1 1.7-.2 0 .6-.5 1.1-1.1 1.1-.5 0-.7.4-.4 1 .3.5.1 1-.4 1-.6 0-1.2-.3-1.2-.8-.7-4.7-.7-6.5 0-5.3.5.8.6 2.1.3 3zm8.5-1.7c-.3.8-.6.5-.6-.6-.1-1.1.2-1.7.5-1.3.3.3.4 1.2.1 1.9zm43.2.5c-1.2 1.5-1.2 1.6.3 1 2.2-.8 2.8.2 1.7 2.8-.6 1.5-.8 1.6-.8.4-.1-2.2-2.8-3.2-3.5-1.4-.3.8-.1 1.7.4 2 1.5.9.1 3.1-2 3.1-1 0-1.6-.4-1.4-.8.3-.4 1.2-.8 2.1-.8 1.2 0 1.3-.3.5-1.3-.9-1-.6-2.1 1.1-4.4 1.2-1.7 2.4-3 2.6-2.7.2.2-.2 1.1-1 2.1zm4.8-.8c0 1.1-.5 1.8-.9 1.5-.4-.3-.5-1.1-.1-1.9.7-2.1 1.2-1.9 1 .4zm12.3 2.3c0 .5-.5.8-1.1.8-.5 0-.8-.4-.4-.9.3-.5.1-1.2-.5-1.6-.5-.3-1-1.1-1-1.8 0-1.2 2.9 2.3 3 3.5zm-71-1.7c0 .2-.9.3-1.9.2-1.1 0-1.8-.5-1.5-.9.4-.6 3.4 0 3.4.7zm24.6 0c1.6.8 2.2 1.5 1.4 1.5-.8-.1-2.4-.7-3.4-1.5-2.5-1.9-1.6-1.9 2 0zm12.4-.5c0 .5-.4 1-1 1-.5 0-1-.5-1-1 0-.6.5-1 1-1 .6 0 1 .4 1 1zm10 0c.8.5 1.1 1 .5 1-.5 0-1.7-.5-2.5-1s-1-1-.5-1c.6 0 1.7.5 2.5 1zm-24 3.2c0 .5.3.7.8.5.4-.3 1.4.2 2.2 1.1 1.3 1.4 1.2 1.5-.5.8-1.1-.5-2.5-.9-3.2-.9-.7 0-1-.4-.7-.9.3-.4 0-.8-.5-.8-.6 0-1.1-.4-1.1-1 0-.5.7-.7 1.5-.4.8.4 1.5 1 1.5 1.6zm12 .2c0 2.1 3.4 3.5 5.3 2.1.9-.6 1.4-1.5 1-1.8-.3-.4-.1-.7.6-.7.6 0 1.1.6 1 1.2-.3 2.6.1 3.9 1.1 3.3.6-.4.7.1.3 1.2-.6 1.6-.5 1.7 1.3.3s1.8-1.4.5.3-1.6 1.7-2.6.3c-.7-.9-1.5-1.3-1.9-.9-.4.4-.4-.1 0-1.1.6-1.6.5-1.7-1.5-.7-1.9 1.1-2.5.8-5-1.8-2.3-2.5-3-2.8-3.5-1.5-.3.9-1.1 1.2-1.8.8-.8-.5-.9-.2-.5.9.8 2.2.5 2.1-1.6-.3-1.7-2-1.6-2 .7-1.6 1.5.3 2.7-.1 3-1 .6-1.6 3.6-.8 3.6 1zm11-1.4c1.3.8 1.3 1-.2 1-.9 0-2-.5-2.3-1-.8-1.3.5-1.3 2.5 0zm21 2.6c-.6.6-.6 1.5-.2 1.9.4.5.1.5-.6.1s-1-1.2-.6-1.7c.3-.5 0-1.7-.8-2.6-1.2-1.5-1.1-1.5.9-.3 1.5 1 1.9 1.8 1.3 2.6zm-72-.2c0 1-3 0-3.4-1.1-.4-1.1-.1-1.1 1.4-.3 1.1.6 2 1.2 2 1.4zm5.5.6c-.3.5.4 1.2 1.6 1.5 1.1.4 1.8.9 1.6 1.2-.9.8-4.8-1.8-4.2-2.8.4-.5-.1-.9-.9-.9-.9 0-1.6-.5-1.6-1 0-.7.7-.7 2 0 1.1.6 1.8 1.5 1.5 2zm38.7-2.3c-.6.2-.9 1-.6 1.5.4.7.2.8-.4.4-1.8-1.1-1.4-2.6.6-2.5 1 0 1.2.3.4.6zm9.5 1.3c-.4 2.8-1.3 3.3-3.4 2-1.6-1-1.6-1 .5-.5 1.2.4 2.2.3 2.1-.2-.2-1.4.1-3.3.6-3.3.3 0 .4.9.2 2zm408.2-1.6c-1.9 2-8.2 5.5-8.9 5.1-1.4-.9 0-3.6 2.4-4.5 2.2-.9 7.3-1.3 6.5-.6zm-446.9 1.8c0 1.1-1.2 1-3-.2-1.2-.7-1-.9.8-.7 1.2 0 2.2.5 2.2.9zm9.8.8c.6 1.1 1.8 1.7 2.6 1.4 2.2-.9 3 1.6 1 3.1-1.1.7-2.2 1.1-2.6.9-1-.6-1.1 2-.1 2.9.3.4 1.2-.1 2-1.1 1.3-1.5 1.3-1.5.3.5-1.3 2.8-4.2 2-3.8-1.1.2-1.1.9-2 1.5-1.9.6.1 1.7-.5 2.5-1.4 1.1-1.5 1.1-1.6-.5-1-1.1.4-2.3 0-3.4-1.2-.9-1.1-2.3-1.7-3.2-1.4-1.4.4-1.4.3-.1-.6 2-1.5 2.3-1.4 3.8.9zm-34.8.4c0 .3-.4.8-1 1.1-.5.3-1 .1-1-.4 0-.6.5-1.1 1-1.1.6 0 1 .2 1 .4zm14 2.9c0 .6-.7.2-1.5-.9-1.5-1.9-1.6-1.9-1.3.1.2 1.1.8 2.4 1.3 2.8.6.5.4.7-.4.5-1.5-.4-2.4-3.5-1.5-5 .7-1.1 3.4 1 3.4 2.5zm8.6-.8c.3 1.4 1 2.2 1.6 1.9.5-.3.7-1.3.3-2.3-.5-1.3-.4-1.4.6-.3 1.1 1 1 1.6-.4 3-1.7 1.6-1.8 1.6-2.3-.6-.4-1.2-1-2.2-1.5-2.2s-.9-.5-.9-1c0-2.1 2-.9 2.6 1.5zm30.4 2.2c0 .6-2.2-.7-4.2-2.5-1-.8-1.8-1-1.8-.5 0 .6.7 1.6 1.5 2.3 1.6 1.3 1.1 3-.8 2.9-.8 0-.8-.2.1-.6 1-.4 1-.9-.3-2.3-2.7-3-.8-4.3 2.6-1.8 1.6 1.2 2.9 2.3 2.9 2.5zm-44.6-2.1c.3.8.2 1.2-.4.9-.6-.3-1-1-1-1.6 0-1.4.7-1.1 1.4.7zm25 .1c.4 1 .4 1.4 0 1.1-.3-.4-1.3-.1-2 .7-.8.8-2.1 1.2-2.9.8-1.1-.4-1.3-.1-.9 1.1.6 1.7-1.1 2.3-2 .7-.8-1.2 2.1-3.4 3.3-2.6.6.3 1.6-.3 2.3-1.5 1.5-2.4 1.4-2.4 2.2-.3zm-35.3 2c1.3 1.6 1.2 1.7-.3.4-1-.7-1.8-1.5-1.8-1.7 0-.8.8-.3 2.1 1.3zm47.6 1.2c-.1 1.5-.4 1.7-1.9.7-1-.6-1.8-1.5-1.8-2 0-.4.8-.2 1.7.5 1.5 1.2 1.6 1.2 1-.4-.4-1-.3-1.6.2-1.2.6.3.9 1.4.8 2.4zm-35.1 1.2c.3.6-.5.3-2-.6-1.4-1-2.6-1.9-2.6-2.2 0-.7 3.9 1.7 4.6 2.8zm9.1-.5c.2 1.4.1 1.5-.5.4-1-2.1-4.4-2.6-3.6-.5.3.8.2 1.5-.4 1.5-.8 0-.9-1.7-.3-3.7.1-.2 1.1-.1 2.4.1 1.3.2 2.3 1.1 2.4 2.2zm24.3 2.2c0 .1-.9-.2-2-.8-1.1-.6-2-1.5-2-2 0-.6.9-.2 2 .7 1.1 1 2 1.9 2 2.1zm-40-1.8c0 .5-.4 1-1 1-.5 0-1-.5-1-1 0-.6.5-1 1-1 .6 0 1 .4 1 1zm3.5.8c-.3.3-1.1 0-1.8-.7-.9-1-.8-1.1.6-.5 1 .3 1.5.9 1.2 1.2zm17.1 1.4c.2-.2 1-.1 1.7.1.6.3.2.4-1.1.4-1.3-.1-2.8-1.1-3.3-2.2-1-2-1-2 .6 0 .9 1.1 1.8 1.9 2.1 1.7zm7.1-1c-.3.8-.6.5-.6-.6-.1-1.1.2-1.7.5-1.3.3.3.4 1.2.1 1.9zm-37.7 1.3c-1.2 1.5-.7 4.5 1.1 5.6.9.5 1 .9.2.9-1.6 0-2.7-2-2.9-5.1-.1-1.5.4-2.6 1.2-2.6.9 0 1 .4.4 1.2zm23.7 0c0 .8-.4 1.2-.9.9-.5-.3-.6-1-.3-1.5.9-1.3 1.2-1.1 1.2.6zm11.4.8c-1 .9-1.1.8-.5-.6.3-1 .9-1.5 1.2-1.2.3.3 0 1.1-.7 1.8zm-28.3.7c-.7 1-1.4 1.8-1.5 1.6-.6-.6.9-3.6 1.8-3.6.5 0 .4.9-.3 2zm5.6-.4c.3.9.2 1.2-.5.9-.5-.4-1.7-.1-2.6.7-1.5 1.2-1.5 1.1-.2-1 1.6-2.6 2.5-2.8 3.3-.6zm4 0c.9 2.4.2 2.6-1.2.4-.7-1.1-.8-2-.3-2s1.2.7 1.5 1.6zm10.5 0c.4-.3.7.6.7 1.9 0 1.3-.4 2.1-.8 1.9-.5-.3-.6-.9-.3-1.4.3-.5.1-1.1-.5-1.5-.5-.3-1-1.2-.9-1.8 0-.9.2-.8.6.1.2.6.8 1 1.2.8zm12.8 1.1c0 .7-.4 1.3-.9 1.3-.4 0-.8-.5-.8-1.1 0-.5-.5-.7-1.2-.3-.6.4-.8.3-.5-.3.9-1.4 3.4-1.2 3.4.4zm-8.2.3c.3.6-.1.7-.9.4-1.8-.7-2.1-1.4-.7-1.4.6 0 1.3.4 1.6 1zm-44.4 2.3c-1 .9-1.1.8-.5-.6.3-1 .9-1.5 1.2-1.2.3.3 0 1.1-.7 1.8zm16.9-1.1c0 .4-.4.8-.9.8-.6 0-1.2-.4-1.5-.8-.3-.5.1-.9.9-.9s1.5.4 1.5.9zm-9.7 2.4c-.7 1.9-1 1.8-1.6-.5-.3-1.3-.1-1.8.9-1.4.7.2 1 1.1.7 1.9zm27.8-.3c-1 .9-1.1.8-.5-.6.3-1 .9-1.5 1.2-1.2.3.3 0 1.1-.7 1.8zm-30.6-.4c.3.5.2 1.2-.3 1.5-.5.3-.9-.1-.9-.9 0-1.7.3-1.9 1.2-.6zm16.7.2c.2.2.1.3-.1.2-.2-.2-.9.5-1.6 1.4-.9 1.3-1.4 1.3-2 .3-.6-.9-.4-1.1.5-.5 1 .6 1.2.4.7-.7-.3-1-.1-1.5.8-1.4.8.1 1.6.4 1.7.7zm9.4.1c.3.4-.1.5-1 .4-.8-.1-1.8-.5-2.2-.8-.3-.4.1-.5 1-.4.8.1 1.8.5 2.2.8zm7.9-.3c.3.5.2 1.2-.3 1.5-.5.3-.9-.1-.9-.9 0-1.7.3-1.9 1.2-.6zm-37.1 1.9c.3.5-.1.9-.9.9s-1.2-.4-.9-.9c.3-.4.7-.8.9-.8.2 0 .6.4.9.8zm11.7 1c-.7.2-1.8-.1-2.3-.6-.8-.8-.4-.9 1.3-.5 1.3.4 1.8.8 1 1.1zm11.9-.8c0 .5-.4 1-1 1-.5 0-1-.5-1-1 0-.6.5-1 1-1 .6 0 1 .4 1 1zm-7.9 1.7c1.3 1.6 1.2 1.7-.3.4-1-.7-1.8-1.5-1.8-1.7 0-.8.8-.3 2.1 1.3zm-11.1-.3c0 .2-.8 1-1.7 1.7-1.6 1.3-1.7 1.2-.4-.4 1.3-1.6 2.1-2.1 2.1-1.3zm23 1c0 .2-.8 1-1.7 1.7-1.6 1.3-1.7 1.2-.4-.4 1.3-1.6 2.1-2.1 2.1-1.3zM736.5 1468c.3.5.1 1-.4 1-.6 0-1.1-.5-1.1-1 0-.6.2-1 .4-1 .3 0 .8.4 1.1 1zm-52 10.8c-.3.3-1.1 0-1.8-.7-.9-1-.8-1.1.6-.5 1 .3 1.5.9 1.2 1.2zm-8 4c-.1.9.2 2.4.8 3.2.9 1.2.9 1.3-.3.2-1.5-1.3-2.3-6.5-.9-5.7.4.3.6 1.3.4 2.3zm-4 0c-.3.3-1.1 0-1.8-.7-.9-1-.8-1.1.6-.5 1 .3 1.5.9 1.2 1.2zm-3.1 1c.3.5-.1.9-.9.9s-1.2-.4-.9-.9c.3-.4.7-.8.9-.8.2 0 .6.4.9.8zm12.6-.3c0 .2-.6.8-1.3 1.4-1 .8-1.4.7-1.4-.2 0-.8.6-1.4 1.4-1.4.7 0 1.3.1 1.3.2zm-5.5 4.4c.3.5.2 1.2-.3 1.5-.5.3-.9-.1-.9-.9 0-1.7.3-1.9 1.2-.6zm4.5.1c0 .5-.5 1-1.1 1-.5 0-.7-.5-.4-1 .3-.6.8-1 1.1-1 .2 0 .4.4.4 1zm-41.6 1.8c.3.5-.1.9-.9.9s-1.2-.4-.9-.9c.3-.4.7-.8.9-.8.2 0 .6.4.9.8zm31.6-.4c0 .3-.4.8-1 1.1-.5.3-1 .1-1-.4 0-.6.5-1.1 1-1.1.6 0 1 .2 1 .4zm-29 2c0 .2-.8 1-1.7 1.7-1.6 1.3-1.7 1.2-.4-.4 1.3-1.6 2.1-2.1 2.1-1.3zm24 .2c0 .8-1.9 1.3-2.4.6-.3-.5.1-.9.9-.9s1.5.2 1.5.3zm-33.3 1.9c0 .8-.4 1.2-.9.9-.5-.3-.6-1-.3-1.5.9-1.3 1.2-1.1 1.2.6zm22.3.5c0 .5-.5 1-1.1 1-.5 0-.7-.5-.4-1 .3-.6.8-1 1.1-1 .2 0 .4.4.4 1zm622.6.2c.3.5-.5 2.1-1.7 3.5-4.3 4.5-25 17.4-33 20.4-4.3 1.7-9.7 4.4-12.1 6-4.4 3-8 4.3-16.2 5.8-5.2 1-6.6 0-3.7-2.5 1.9-1.7 1.9-1.7-.1-3.4-3.4-2.7-1.4-5.8 10.3-15.5 3-2.5 11.2-5.2 33.9-10.9 18-4.5 21.6-5 22.6-3.4zm-641.1 2.6c-.3.3-1.1 0-1.8-.7-.9-1-.8-1.1.6-.5 1 .3 1.5.9 1.2 1.2zM677 1510c0 .5-.5 1-1.1 1-.5 0-.7-.5-.4-1 .3-.6.8-1 1.1-1 .2 0 .4.4.4 1zm3.5-.1c.3.5.2 1.2-.3 1.5-.5.3-.9-.1-.9-.9 0-1.7.3-1.9 1.2-.6zm9.5 1.5c0 .2-.8 1-1.7 1.7-1.6 1.3-1.7 1.2-.4-.4 1.3-1.6 2.1-2.1 2.1-1.3zm-33.6 4.4c.3.5-.1.9-.9.9s-1.2-.4-.9-.9c.3-.4.7-.8.9-.8.2 0 .6.4.9.8zm-68.3 4.9c1.3 1.6 1.2 1.7-.3.4-1-.7-1.8-1.5-1.8-1.7 0-.8.8-.3 2.1 1.3zm92.4-.7c.3.5.1 1-.4 1-.6 0-1.1-.5-1.1-1 0-.6.2-1 .4-1 .3 0 .8.4 1.1 1zm329.9-.2c.2.4-.5.9-1.7.9-1.7.2-1.9 0-.7-.7 1.8-1.2 1.8-1.2 2.4-.2zm-417.9 3c-.3.3-1.1 0-1.8-.7-.9-1-.8-1.1.6-.5 1 .3 1.5.9 1.2 1.2zm425.8.7c-.7 2.1-1.2 1.9-1-.4 0-1.1.5-1.8.9-1.5.4.3.5 1.1.1 1.9zm-441.7-.6c-.4.5-.1 1.1.6 1.3.8.3.6.6-.4 1-1.1.5-1.5.2-1.3-1 .5-2.3.4-2.2 1.1-2.2.3 0 .3.4 0 .9zm-3.6 1.6c0 .8-.4 1.5-1 1.5-.5 0-.7-.7-.4-1.5.4-.8.8-1.5 1-1.5.2 0 .4.7.4 1.5zm12 1.1c0 .2-.9 0-2-.6s-2-1.3-2-1.6c0-.2.9 0 2 .6s2 1.3 2 1.6zm2-1.6c0 .5-.2 1-.4 1-.3 0-.8-.5-1.1-1-.3-.6-.1-1 .4-1 .6 0 1.1.4 1.1 1zm5 .5c0 .2-.6.5-1.3.8-.8.3-1.4-.1-1.4-.8 0-.7.6-1.1 1.4-.8.7.3 1.3.6 1.3.8zm4.3 0c.4.8.3 1.6-.1 1.9-.4.3-.9-.4-.9-1.5-.2-2.3.3-2.5 1-.4zm86.7-1.1c0 .3-.4.8-1 1.1-.5.3-1 .1-1-.4 0-.6.5-1.1 1-1.1.6 0 1 .2 1 .4zm327.1 1.3c1.2 1.6 1.2 1.7-.2.6-.9-.7-2-.9-2.4-.5-.5.4-.5.1-.1-.6.9-1.6 1.1-1.5 2.7.5zm4.9-.8c0 .6-.4 1.2-.8 1.5-.5.3-.9-.1-.9-.9s.4-1.5.9-1.5c.4 0 .8.4.8.9zm-448 2.1c0 .5-.5 1-1.1 1-.5 0-.7-.5-.4-1 .3-.6.8-1 1.1-1 .2 0 .4.4.4 1zm14 0c0 .5-.4 1-1 1-.5 0-1-.5-1-1 0-.6.5-1 1-1 .6 0 1 .4 1 1zm5 1.5c-.7.9-1.5 1.3-1.9 1-.3-.3.1-1 .9-1.5 2.1-1.4 2.4-1.2 1 .5zm-23.7 3.7c-.2.3.2.8.9 1.1.7.2.5.3-.5.1-.9-.1-2.2.5-2.8 1.4-.9 1.5-1 1.5-.5-.1.3-1.1 0-2-.9-2.3-.8-.4-1.5-1.1-1.5-1.7 0-.5.9-.2 2 .8s2 1.3 2 .7c0-.6-.4-1.4-1-1.7-.5-.3-1-1-1-1.6 0-.5.8-.1 1.8.8 1.1 1 1.7 2.1 1.5 2.5zm1.7-3.2c0 .5-.4 1-1 1-.5 0-1-.5-1-1 0-.6.5-1 1-1 .6 0 1 .4 1 1zm7.5 0c.4.6-.1.7-1.2.3-1.6-.6-1.6-.5-.4 1 .9 1.1 1 1.7.2 1.7-.6 0-1.1-.5-1.1-1.1 0-.5-.4-.7-1-.4-.5.3-1 .2-1-.4 0-.9 1.5-1.8 3.2-2 .4-.1 1 .3 1.3.9zm3.5 0c0 .5-.4 1-1 1-.5 0-1-.5-1-1 0-.6.5-1 1-1 .6 0 1 .4 1 1zm27.6.5c-.1.8-.5 1.7-.8 2.1-.5.4-.4-1.6.1-3.4.3-.9.9.1.7 1.3zm10.1-.1c.4.4.1.6-.7.4-.9-.2-1.4.3-1.2 1.2.2.8 0 1.1-.4.7-1.4-1.3-1.2-3.5.2-3.3.7.1 1.7.6 2.1 1zm14 .1c0 .8-.4 1.2-.9.9-.5-.3-.6-1-.3-1.5.9-1.3 1.2-1.1 1.2.6zm383.8-.6c.3.5.2 1.2-.3 1.5-.5.3-.9-.1-.9-.9 0-1.7.3-1.9 1.2-.6zm-461.8 3.1c.1 1.1-.2 2.2-.6 2.4-.6.4-.7-2.6-.2-4.2.3-.8.7.1.8 1.8zm17.6-.6c.4 1 .1 1.3-.8.9-.8-.3-1.2-.9-.9-1.4.7-1.2 1.1-1.1 1.7.5zm11 .9c.7-.3.8-.2.4.2-1.4 1.6-3.6 1.4-2.9-.3.4-1 .7-1.2 1-.4.2.7.9.9 1.5.5zm5.3.6c0 1.5-.3 1.7-1.8.7-1.7-1-1.7-1.1 0-1.8.9-.3 1.7-.7 1.7-.7.1-.1.1.7.1 1.8zm14.2.6c-.3.3-.9-.2-1.2-1.2-.6-1.4-.5-1.5.5-.6.7.7 1 1.5.7 1.8zm-38.8.1c0 .2-.7.4-1.5.4s-1.5-.4-1.5-1c0-.5.7-.7 1.5-.4.8.4 1.5.8 1.5 1zm441.4-.7c-.8.8-3.4 1-3.8.2-.3-.4.6-.7 1.9-.7 1.4 0 2.2.2 1.9.5zm-428.9 1c.3.5 0 1.3-.6 1.7-.8.5-.9.3-.4-.6.6-1 .4-1.2-.9-.7-1 .4-2 .7-2.2.7-.3 0-.2.5.2 1.2.5.7.3.8-.6.3-1-.6-.9-1.1.5-2.2 2.2-1.5 3.2-1.6 4-.4zm-25 1.1c-.3.5-1.2 1-1.8 1-.7 0-.6-.4.3-1 1.9-1.2 2.3-1.2 1.5 0zm5.2-.3c-.7 1.1 1.9 3.3 2.9 2.5.4-.4.4-.1 0 .6-.6 1.1-1.2 1-2.7-.4-1.6-1.4-1.8-3.4-.3-3.4.3 0 .3.3.1.7zm3.8.3c.3.5.2 1-.4 1-.5 0-1.3-.5-1.6-1-.3-.6-.2-1 .4-1 .5 0 1.3.4 1.6 1zm27.8 1.4c.3-.3.4.1.3 1-.1.8-.5 1.8-.9 2.1-.4.3-.5.2-.2-.2.3-.3-.5-1.8-1.7-3.2-2-2.2-2-2.3-.2-.8 1.1.9 2.3 1.4 2.7 1.1zm7.1-1.2c-.3.4-.9.8-1.5.8-.5 0-.9-.4-.9-.8 0-.5.7-.9 1.5-.9s1.2.4.9.9zm4.6-.2c-.8.5-1.9 1-2.5 1-.5 0-.3-.5.5-1s2-1 2.5-1c.6 0 .3.5-.5 1zm-31 1.5c.5-.3 1.2 0 1.6.6.4.8.3.9-.4.5s-1.2-.1-1.3.6c0 1-.2 1.1-.6 0-.4-1-.8-1-2.1 0-1.4 1.2-1.4 1.1-.1-1 .8-1.2 1.5-1.8 1.7-1.2.2.6.8.8 1.2.5zm-5-.1c0 .2-.7.7-1.6 1-.8.3-1.2.2-.9-.4.6-1 2.5-1.4 2.5-.6zm15 0c0 .3-.4.8-1 1.1-.5.3-1 .1-1-.4 0-.6.5-1.1 1-1.1.6 0 1 .2 1 .4zm-12.3 5.3c0 .9-.4 1-1.2.3-.7-.5-1.4-.7-1.7-.4-.3.3-.8.1-1.1-.3-.3-.5.5-.9 1.7-.9s2.3.6 2.3 1.3zm7.8.2c.3.5.2 1.2-.3 1.5-.5.3-.9-.1-.9-.9 0-1.7.3-1.9 1.2-.6zm-11.9 2.5c.1.8-.9 1.2-3 1.2-2.1-.1-3 .4-2.8 1.2.1.8-.2 1.1-.8.7-.8-.5-.8-1.1.1-2.1.6-.7 1.5-1.1 2-.8.5.3.9-.1.9-.8 0-.9.3-.9 1 .2.9 1.4 1.5.6 1-1.5-.1-.6.2-.6.6-.2.4.4.9 1.3 1 2.1zm418.4 42.1c-1.9 1.9-3.7 3.5-4.1 3.5-.5 0-2.7 1.3-5.1 2.9-5 3.3-17.7 8.5-18.6 7.6-1.5-1.5 2.2-4.3 12.9-9.7 17.2-8.8 20-9.6 14.9-4.3zm351.8 12.4c.2 1.2.1 3.4-.2 4.7-1.2 4.5-13.1 14.2-16.1 13-.9-.3-2.9 0-4.3.8-3.7 1.9-10.7 3.2-9.8 1.8.3-.6-.6-1.9-2-3-2.1-1.5-2.6-2.4-2.1-4.4 2.1-8.3 16.4-15.6 30.2-15.4 3.4.1 4 .4 4.3 2.5zm144.6 28c3.5.2 1 1.1-4 1.6-2.6.2-5.3.1-5.8-.3-1.3-.8 3.2-2.1 5.9-1.7 1.1.2 2.9.4 3.9.4z"/><path d="M903 1424c0 .5.5 1 1 1 .6 0 1-.5 1-1 0-.6-.4-1-1-1-.5 0-1 .4-1 1zM1718.9 1032.5c-.3.2-2.5.7-5 1-5.3.6-28.5 9-28.2 10.2.3 1.2 5.7 2.1 17.1 2.9 11.3.7 11.9.7 14.5 1.9 3.8 1.6 4.7 0 4.7-8.5 0-6-.3-8-1.3-8-.8 0-1.6.2-1.8.5zM822.5 1067.4c-1.9 1.3-15.7 8.6-37.5 19.7-9.7 5-15 9-13 9.7 1 .4 19.7-8.3 28.7-13.4 3.4-1.9 6.5-3.4 6.8-3.4.6.1 7.5-4.8 8.5-6 .3-.4 2.6-2.1 5.3-3.9 2.6-1.7 4.7-3.4 4.7-3.6 0-.9-1.6-.5-3.5.9zM810.5 1092c-2.7 1.5-6.1 3.1-7.5 3.5-3.4.9-9.6 3.7-22.3 10.1-6 3-11.4 5.4-12.2 5.4-.7 0-4.6 1.5-8.6 3.4-6.9 3.2-8.9 5-11.7 10.8-.5 1 8.7-2.7 24.1-9.7 7-3.1 12.7-6.1 12.7-6.5 0-.8 11.7-8.1 22.5-14 3.3-1.8 6.7-3.9 7.5-4.6 1.9-1.8 1.4-1.7-4.5 1.6zM876.5 1107c-.3.5.1 1 .9 1s1.8-.5 2.1-1c.3-.6-.1-1-.9-1s-1.8.4-2.1 1zM859.3 1144.3c-12 7.3-19.7 12.6-19.1 13.3 1 .9 16.3-8 22.9-13.3 6-4.8 7.7-6.4 6.7-6.3-.2 0-4.9 2.9-10.5 6.3zM1346.9 1148.6c-1.9 1.4-6.4 4.3-10.1 6.5-4.2 2.4-7.2 5-8.2 6.9l-1.5 3.1 4.9-2.7c2.6-1.4 6.3-4 8.2-5.8 1.9-1.7 5.3-4.8 7.6-6.9 4.8-4.2 4.3-5-.9-1.1zM1202.4 1238.9c-5.4 2.9-11.5 5.1-20.1 7.1-5.6 1.3-6.6 2.1-8.2 6.3-1 2.6-1 2.7 1.7 2.1 6.1-1.5 33.2-16.1 33.2-17.9 0-1-1.6-.4-6.6 2.4zM333.4 1594.4c-2.7 3.3-7.5 9.1-10.6 12.9-3.2 3.7-5.8 7-5.8 7.3 0 1.1 8.5-.8 9.5-2 .6-.7 1.4-1.3 2-1.3 1.4-.1 4.6-6.1 3.5-6.8-1.8-1.1 2-9 5.5-11.3 3.7-2.4 4.3-3.7 2.2-4.5-.8-.3-3.4 2-6.3 5.7z"/></svg>