<svg xmlns="http://www.w3.org/2000/svg" viewBox="0 0 600 600"><g fill="#fff"><path d="M442.94,207.38c-12.74,76.24-63.94,123.45-134.28,123.45h-55.7c-2.43,0-6.49,0-9.07,13.02l-22.12,140.03h0c-1.74,11.03,.63,16.12,7.28,16.12h61.64c4.38-.39,7.29-3.65,8.13-9.19l12.92-85.28c2.22-14.69,7.73-20.09,15.9-20.09h30.12c59.65,0,104.63-41.13,110.44-115.52,2.14-27.39-5.44-49.44-25.26-62.55Z"/><path d="M427.38,186.56c-3.17,39.42-16.29,71.94-37.96,94.03-20.67,21.09-48.6,32.23-80.76,32.23h-55.7c-14.91,0-24.11,10.4-27.33,30.9l-15.76,100.28c-1.01,6.42-3.79,10.2-8.87,10.65h-60.46c-7.72,0-10.46-5.9-8.44-18.7L182.19,118.76c2.01-12.71,8.96-18.76,22.78-18.76h103.92c31.81,0,69.54,1.03,94.78,23.29,16.7,14.73,25.54,38.11,23.72,63.27Z"/></g></svg>