<?xml version="1.0" standalone="no"?>
<!DOCTYPE svg PUBLIC "-//W3C//DTD SVG 20010904//EN"
 "http://www.w3.org/TR/2001/REC-SVG-20010904/DTD/svg10.dtd">
<svg version="1.0" xmlns="http://www.w3.org/2000/svg"
 width="548.000000pt" height="548.000000pt" viewBox="0 0 548.000000 548.000000"
 preserveAspectRatio="xMidYMid meet">
<metadata>
Created by potrace 1.14, written by Peter Selinger 2001-2017
</metadata>
<g transform="translate(0.000000,548.000000) scale(0.100000,-0.100000)"
fill="#000000" stroke="none">
<path d="M3975 5140 c-61 -13 -236 -104 -367 -191 -65 -43 -122 -80 -128 -84
-15 -9 -43 43 -55 103 -13 62 -29 78 -68 68 -36 -9 -51 -35 -96 -164 -22 -61
-57 -151 -80 -200 -23 -49 -41 -93 -41 -98 0 -5 -9 -26 -20 -47 -12 -21 -32
-81 -46 -134 -32 -119 -54 -169 -108 -252 -24 -36 -62 -113 -83 -171 -22 -59
-61 -136 -87 -174 -60 -87 -89 -145 -111 -221 l-17 -60 -18 60 c-25 87 -42
122 -98 199 -113 153 -226 240 -377 291 -73 25 -89 27 -195 22 -205 -9 -334
-70 -501 -238 -67 -68 -96 -106 -134 -180 l-49 -94 -4 -167 c-5 -200 9 -276
68 -366 51 -77 88 -109 205 -175 204 -114 298 -147 422 -147 71 0 73 -1 61
-20 -7 -11 -19 -20 -26 -20 -7 0 -15 -7 -18 -15 -4 -8 -12 -15 -18 -15 -7 0
-52 -39 -101 -87 -50 -47 -113 -105 -141 -127 -181 -145 -294 -223 -398 -276
-105 -54 -126 -61 -219 -74 -70 -9 -152 -11 -261 -7 l-160 6 -9 30 c-4 17 -12
68 -17 115 -8 74 -12 88 -35 107 -53 46 -97 24 -168 -85 -62 -93 -63 -95 -97
-228 -30 -114 -32 -126 -28 -284 3 -164 3 -166 36 -233 46 -93 155 -207 198
-207 43 0 104 75 104 128 0 31 10 32 60 6 39 -20 52 -23 74 -14 37 14 36 14
36 -18 0 -20 -8 -32 -30 -45 -48 -29 -64 -70 -57 -147 10 -119 76 -247 186
-364 62 -66 163 -136 195 -136 12 0 58 18 103 41 92 47 125 84 143 162 16 76
49 117 136 172 43 28 160 105 261 172 101 68 202 132 226 144 23 12 61 38 83
58 23 20 54 44 68 54 15 10 48 47 74 82 70 94 270 312 348 380 93 82 144 132
186 185 60 75 142 246 172 360 26 97 65 210 88 253 8 16 12 15 56 -10 45 -27
54 -28 197 -31 138 -3 157 -2 240 23 106 30 176 70 258 145 236 217 283 523
128 839 -65 132 -85 158 -157 200 -121 71 -204 125 -204 133 0 4 27 37 60 74
33 36 67 78 76 93 29 48 92 91 133 91 92 0 229 -107 277 -216 20 -46 24 -70
24 -154 0 -100 10 -150 52 -270 21 -60 23 -79 21 -260 l-3 -195 -54 -165 c-30
-91 -61 -185 -70 -210 -9 -25 -27 -90 -42 -145 -43 -169 -88 -301 -182 -535
-50 -124 -134 -342 -187 -485 -131 -351 -154 -405 -247 -579 -44 -83 -89 -173
-98 -201 -10 -27 -34 -91 -54 -142 -19 -50 -51 -145 -70 -210 -19 -65 -52
-157 -74 -203 -21 -47 -45 -103 -52 -125 -7 -22 -33 -82 -57 -134 -23 -51 -43
-95 -43 -97 0 -2 128 -4 285 -4 l284 0 30 92 c17 51 82 247 146 435 63 189
115 350 115 358 0 59 188 495 214 495 7 0 25 -13 41 -30 30 -31 79 -46 118
-37 37 10 57 59 77 189 10 68 28 168 40 223 12 55 24 110 26 122 3 18 11 23
33 23 15 0 35 8 44 18 19 21 61 146 72 212 4 25 20 74 35 110 16 36 33 85 40
110 16 65 111 374 117 380 2 2 18 -10 35 -28 36 -40 71 -40 101 0 16 21 21 51
28 150 6 92 14 143 35 203 25 75 28 94 32 288 l4 207 70 0 c65 0 71 2 98 32
l30 32 -7 116 c-8 145 -36 228 -134 394 -56 97 -69 125 -64 148 4 15 11 30 16
33 14 9 11 113 -6 144 -19 37 -146 155 -217 201 -31 20 -77 43 -102 50 -49 13
-72 32 -61 50 3 6 24 19 46 31 36 18 40 24 37 52 -3 29 -10 36 -92 77 l-90 45
-225 3 c-124 2 -230 7 -234 12 -13 12 16 60 67 110 25 24 46 49 46 56 0 30
-61 47 -125 34z m-1861 -1101 c96 -17 221 -83 291 -154 33 -33 67 -69 75 -80
9 -11 27 -36 42 -55 100 -132 143 -398 90 -558 -47 -139 -161 -286 -260 -332
-24 -11 -66 -25 -95 -31 -29 -6 -83 -20 -122 -32 -52 -16 -98 -21 -180 -22
l-110 0 -145 74 c-191 97 -249 138 -292 203 -69 106 -80 162 -68 348 14 208
36 267 141 389 106 122 274 241 340 241 13 0 31 5 39 10 20 13 179 13 254 -1z
m1451 -36 c22 -13 78 -43 125 -67 103 -53 119 -69 168 -171 84 -174 120 -337
102 -462 -13 -91 -19 -113 -66 -208 -32 -68 -167 -211 -224 -239 -118 -59
-226 -83 -360 -81 -116 1 -163 13 -229 57 -24 16 -70 42 -102 58 -32 17 -66
42 -76 58 -9 15 -36 48 -59 73 -103 113 -173 331 -145 452 51 225 182 394 375
487 110 52 176 69 276 73 102 3 172 -6 215 -30z m-1523 -1849 c-12 -8 -22 -21
-22 -29 0 -8 -5 -17 -11 -20 -22 -14 -19 5 7 44 19 29 30 39 38 31 7 -7 4 -15
-12 -26z m-172 -138 c0 -7 -3 -33 -6 -58 l-6 -45 -50 1 c-47 1 -49 2 -43 26 3
14 13 40 23 58 13 26 22 32 49 32 21 0 33 -5 33 -14z m-180 -252 c0 -22 -3
-25 -22 -20 -13 3 -35 6 -50 6 -16 0 -28 5 -28 10 0 6 17 10 37 8 22 -1 38 3
41 10 7 22 22 12 22 -14z m-266 -132 c27 -8 31 -13 29 -41 0 -18 -3 -34 -5
-36 -5 -5 -121 35 -132 45 -4 5 -1 26 9 48 l17 39 26 -24 c14 -13 39 -27 56
-31z m-281 -28 c3 -4 0 -22 -8 -41 -8 -20 -15 -51 -15 -69 0 -32 -2 -34 -27
-28 -16 3 -41 10 -57 15 -44 14 -94 11 -121 -7 -15 -10 -25 -12 -25 -5 0 6 5
11 10 11 6 0 10 7 10 15 0 9 5 22 12 29 10 11 18 10 43 -5 62 -39 127 -17 147
49 12 41 18 48 31 36z"/>
<path d="M1845 3536 c-111 -35 -180 -98 -209 -189 -10 -33 -18 -94 -19 -159
l-2 -106 49 -71 c33 -49 63 -80 95 -99 43 -25 53 -27 166 -26 106 1 126 4 175
26 110 50 164 135 182 287 10 89 10 93 -16 145 -28 57 -54 83 -146 144 -88 58
-188 76 -275 48z"/>
<path d="M3332 3846 c-64 -27 -121 -81 -158 -150 -24 -43 -28 -63 -28 -121 1
-81 29 -169 69 -218 92 -110 297 -162 413 -103 62 32 142 117 176 190 33 70
40 187 14 246 -51 119 -167 180 -337 180 -77 -1 -106 -5 -149 -24z"/>
</g>
</svg>
